<svg width="40" height="40" viewBox="0 0 40 40" fill="currentColor" xmlns="http://www.w3.org/2000/svg">
  <path fill-rule="evenodd" clip-rule="evenodd"
    d="M20 38.5C30.2173 38.5 38.5 30.2173 38.5 20C38.5 9.78273 30.2173 1.5 20 1.5C9.78273 1.5 1.5 9.78273 1.5 20C1.5 30.2173 9.78273 38.5 20 38.5ZM20 40C31.0457 40 40 31.0457 40 20C40 8.9543 31.0457 0 20 0C8.9543 0 0 8.9543 0 20C0 31.0457 8.9543 40 20 40Z" />
  <path
    d="M13.8414 28.6411L18.664 20.7495H9V19.2495H18.6635L13.8418 11.3594L15.1586 10.6411L20 18.5633L24.8414 10.6411L26.1582 11.3594L21.3365 19.2495H31V20.7495H21.336L26.1586 28.6411L24.8418 29.3594L20 21.4364L15.1582 29.3594L13.8414 28.6411Z" />
</svg>