<svg width="231" height="24" viewBox="0 0 231 24" fill="none" xmlns="http://www.w3.org/2000/svg">
<path opacity="0.3" d="M209.783 22.8434L205.271 5.87305H209.926L212.49 18.4584H212.585L215.593 5.87305H220.026L223.049 18.4584H223.144L225.725 5.87305H230.284L225.788 22.8434H220.865L217.793 10.8438H217.698L214.643 22.8434H209.783Z" fill="black"/>
<path opacity="0.3" d="M196.808 23.1913C191.648 23.1913 188.402 19.8827 188.402 14.3579V14.3262C188.402 8.86467 191.727 5.52441 196.793 5.52441C201.874 5.52441 205.214 8.833 205.214 14.3262V14.3579C205.214 19.8986 201.937 23.1913 196.808 23.1913ZM196.824 19.5661C199.072 19.5661 200.513 17.6665 200.513 14.3579V14.3262C200.513 11.0493 199.04 9.14962 196.793 9.14962C194.56 9.14962 193.104 11.0493 193.104 14.3262V14.3579C193.104 17.6823 194.545 19.5661 196.824 19.5661Z" fill="black"/>
<path opacity="0.3" d="M178.754 22.8431V5.87269H183.376V8.833H183.471C183.978 6.74337 185.355 5.52441 187.334 5.52441C187.841 5.52441 188.316 5.60357 188.664 5.69855V9.76701C188.284 9.6087 187.651 9.51372 186.986 9.51372C184.706 9.51372 183.376 10.8751 183.376 13.3447V22.8431H178.754Z" fill="black"/>
<path opacity="0.3" d="M167.916 22.8431V5.87269H172.539V8.833H172.634C173.14 6.74337 174.517 5.52441 176.496 5.52441C177.003 5.52441 177.478 5.60357 177.826 5.69855V9.76701C177.446 9.6087 176.813 9.51372 176.148 9.51372C173.868 9.51372 172.539 10.8751 172.539 13.3447V22.8431H167.916Z" fill="black"/>
<path opacity="0.3" d="M158.092 23.1913C152.931 23.1913 149.686 19.8827 149.686 14.3579V14.3262C149.686 8.86467 153.01 5.52441 158.076 5.52441C163.157 5.52441 166.498 8.833 166.498 14.3262V14.3579C166.498 19.8986 163.221 23.1913 158.092 23.1913ZM158.107 19.5661C160.355 19.5661 161.796 17.6665 161.796 14.3579V14.3262C161.796 11.0493 160.324 9.14962 158.076 9.14962C155.844 9.14962 154.387 11.0493 154.387 14.3262V14.3579C154.387 17.6823 155.828 19.5661 158.107 19.5661Z" fill="black"/>
<path opacity="0.3" d="M123.287 22.8431V5.87269H127.91V8.72219H128.005C128.701 6.79086 130.474 5.52441 132.754 5.52441C135.128 5.52441 136.854 6.79086 137.424 9.02297H137.519C138.279 6.88584 140.305 5.52441 142.79 5.52441C146.115 5.52441 148.347 7.81985 148.347 11.2393V22.8431H143.724V12.3949C143.724 10.4319 142.743 9.35541 140.954 9.35541C139.197 9.35541 138.041 10.6377 138.041 12.5215V22.8431H133.593V12.2524C133.593 10.4319 132.564 9.35541 130.854 9.35541C129.097 9.35541 127.91 10.6852 127.91 12.6007V22.8431H123.287Z" fill="black"/>
<path opacity="0.3" d="M113.465 23.1913C108.304 23.1913 105.059 19.8827 105.059 14.3579V14.3262C105.059 8.86467 108.383 5.52441 113.449 5.52441C118.53 5.52441 121.871 8.833 121.871 14.3262V14.3579C121.871 19.8986 118.594 23.1913 113.465 23.1913ZM113.48 19.5661C115.728 19.5661 117.169 17.6665 117.169 14.3579V14.3262C117.169 11.0493 115.697 9.14962 113.449 9.14962C111.217 9.14962 109.76 11.0493 109.76 14.3262V14.3579C109.76 17.6823 111.201 19.5661 113.48 19.5661Z" fill="black"/>
<path opacity="0.3" d="M96.7361 22.8435V3.94181H90.1348V0H108.134V3.94181H101.517V22.8435H96.7361Z" fill="black"/>
<path opacity="0.3" d="M74.5879 22.8431V5.87269H79.2104V8.833H79.3054C79.812 6.74337 81.1892 5.52441 83.1681 5.52441C83.6746 5.52441 84.1496 5.60357 84.4978 5.69855V9.76701C84.1179 9.6087 83.4847 9.51372 82.8198 9.51372C80.5402 9.51372 79.2104 10.8751 79.2104 13.3447V22.8431H74.5879Z" fill="black"/>
<path opacity="0.3" d="M65.2724 23.1913C60.08 23.1913 56.9297 19.8194 56.9297 14.3895V14.3737C56.9297 8.97548 60.1116 5.52441 65.0824 5.52441C70.0532 5.52441 73.1719 8.89633 73.1719 14.0254V15.4502H61.4889C61.5364 18.1572 63.0086 19.7403 65.3674 19.7403C67.2671 19.7403 68.4227 18.6955 68.7551 17.7456L68.7868 17.6506H73.0294L72.9819 17.8248C72.4595 20.326 70.1166 23.1913 65.2724 23.1913ZM65.1616 8.97548C63.2619 8.97548 61.8372 10.2419 61.5364 12.5374H68.7393C68.4544 10.1944 67.0771 8.97548 65.1616 8.97548Z" fill="black"/>
<path opacity="0.3" d="M53.9913 23.1919C50.2236 23.1919 48.4506 21.7354 48.4506 18.0944V9.35592H46.0918V5.8732H48.4506V1.72559H53.1206V5.8732H56.2234V9.35592H53.1206V17.5878C53.1206 19.1709 53.8329 19.7091 55.226 19.7091C55.6376 19.7091 55.9384 19.6616 56.2234 19.63V23.0177C55.701 23.0969 54.9569 23.1919 53.9913 23.1919Z" fill="black"/>
<path opacity="0.3" d="M43.4385 23.1919C39.6708 23.1919 37.8978 21.7354 37.8978 18.0944V9.35592H35.5391V5.8732H37.8978V1.72559H42.5678V5.8732H45.6706V9.35592H42.5678V17.5878C42.5678 19.1709 43.2802 19.7091 44.6733 19.7091C45.0849 19.7091 45.3857 19.6616 45.6706 19.63V23.0177C45.1482 23.0969 44.4042 23.1919 43.4385 23.1919Z" fill="black"/>
<path opacity="0.3" d="M27.3798 23.1913C22.1874 23.1913 19.0371 19.8194 19.0371 14.3895V14.3737C19.0371 8.97548 22.2191 5.52441 27.1899 5.52441C32.1607 5.52441 35.2793 8.89633 35.2793 14.0254V15.4502H23.5963C23.6438 18.1572 25.1161 19.7403 27.4748 19.7403C29.3745 19.7403 30.5301 18.6955 30.8626 17.7456L30.8942 17.6506H35.1368L35.0893 17.8248C34.5669 20.326 32.224 23.1913 27.3798 23.1913ZM27.269 8.97548C25.3693 8.97548 23.9446 10.2419 23.6438 12.5374H30.8467C30.5618 10.1944 29.1845 8.97548 27.269 8.97548Z" fill="black"/>
<path opacity="0.3" d="M0.283203 22.8435V0H10.2248C14.5307 0 17.2378 2.21628 17.2378 5.73067V5.76233C17.2378 8.26356 15.3381 10.4007 12.821 10.7331V10.8281C16.003 11.0656 18.2984 13.3135 18.2984 16.3055V16.3372C18.2984 20.3423 15.2748 22.8435 10.3989 22.8435H0.283203ZM8.99002 3.54605H5.06404V9.54584H8.40429C11.0955 9.54584 12.5361 8.42187 12.5361 6.44305V6.41138C12.5361 4.59087 11.2221 3.54605 8.99002 3.54605ZM8.97419 12.7911H5.06404V19.2816H9.17999C11.9187 19.2816 13.4226 18.1577 13.4226 16.0364V16.0047C13.4226 13.9151 11.9028 12.7911 8.97419 12.7911Z" fill="black"/>
</svg>
