<svg width="96" height="96" viewBox="0 0 96 96" fill="none" xmlns="http://www.w3.org/2000/svg">
<g clip-path="url(#clip0_3380_1627)">
<rect width="150" height="150" transform="matrix(-1 0 0 1 123 -27)" fill="#222222"/>
<g clip-path="url(#clip1_3380_1627)">
<path d="M5.27539 48C5.27539 55.0696 9.8631 61.6251 17.6075 66.4654C25.3375 71.2967 36.0802 74.3184 48 74.3184C59.9198 74.3184 70.6625 71.2967 78.3925 66.4654C86.1369 61.6251 90.7246 55.0696 90.7246 48C90.7246 40.9304 86.1369 34.3749 78.3925 29.5346C70.6625 24.7033 59.9198 21.6816 48 21.6816C36.0802 21.6816 25.3375 24.7033 17.6075 29.5346C9.8631 34.3749 5.27539 40.9304 5.27539 48Z" stroke="white" stroke-width="2.05078"/>
<path d="M31.5249 48C31.5249 55.3848 33.4426 62.0225 36.4888 66.7822C39.5424 71.5534 43.6364 74.3184 47.9995 74.3184C52.3626 74.3184 56.4566 71.5534 59.5102 66.7822C62.5564 62.0225 64.4741 55.3848 64.4741 48C64.4741 40.6152 62.5564 33.9775 59.5102 29.2178C56.4566 24.4466 52.3626 21.6816 47.9995 21.6816C43.6364 21.6816 39.5424 24.4466 36.4888 29.2178C33.4426 33.9775 31.5249 40.6152 31.5249 48Z" stroke="white" stroke-width="2.05078"/>
<path d="M18.4009 48C18.4009 62.4291 31.5407 74.3184 48.0005 74.3184C64.4603 74.3184 77.6001 62.4291 77.6001 48C77.6001 33.5709 64.4603 21.6816 48.0005 21.6816C31.5407 21.6816 18.4009 33.5709 18.4009 48Z" stroke="white" stroke-width="2.05078"/>
<path d="M90.9688 48L5.03125 48" stroke="white" stroke-width="2.05078"/>
<path d="M48 21.4375L48 74.5625" stroke="white" stroke-width="2.05078"/>
</g>
</g>
<defs>
<clipPath id="clip0_3380_1627">
<rect width="96" height="96" rx="16" fill="white"/>
</clipPath>
<clipPath id="clip1_3380_1627">
<rect width="87.5" height="54.6875" fill="white" transform="matrix(-1 0 0 1 91.75 20.6562)"/>
</clipPath>
</defs>
</svg>
