<svg width="64" height="40" viewBox="0 0 64 40" fill="currentColor" xmlns="http://www.w3.org/2000/svg">
  <path fill-rule="evenodd" clip-rule="evenodd"
    d="M31.25 0.00538521C13.9233 0.254445 0 9.11098 0 20C0 30.889 13.9233 39.7456 31.25 39.9946V40H32.75V39.9946C50.0767 39.7456 64 30.889 64 20C64 9.11098 50.0767 0.254445 32.75 0.00538521V0H31.25V0.00538521ZM62.4747 20.75C62.1679 25.2935 59.0825 29.5888 53.8324 32.8701C50.9674 34.6608 47.5096 36.1099 43.6428 37.0893C49.8693 33.7002 54.0982 27.6748 54.3842 20.75H62.4747ZM62.4747 19.25C62.1679 14.7065 59.0825 10.4112 53.8324 7.12986C50.9674 5.33921 47.5096 3.89009 43.6428 2.91068C49.8692 6.29975 54.0982 12.3252 54.3842 19.25H62.4747ZM20.3557 37.0889C16.4896 36.1095 13.0323 34.6606 10.1676 32.8701C4.9175 29.5888 1.83207 25.2935 1.5253 20.75H9.61507C9.90098 27.6745 14.1297 33.6998 20.3557 37.0889ZM1.5253 19.25C1.83207 14.7065 4.9175 10.4112 10.1676 7.12986C13.0323 5.33944 16.4896 3.89045 20.3557 2.91105C14.1297 6.30019 9.90098 12.3255 9.61507 19.25H1.5253ZM31.25 20.75V38.4582C28.6662 38.17 26.174 36.3981 24.2126 33.3336C22.1746 30.1492 20.8326 25.7253 20.7095 20.75H31.25ZM37.8957 2.24303C46.3857 4.44349 52.5191 11.2734 52.8825 19.25H44.7914C44.6166 11.8441 41.8647 5.46679 37.8957 2.24303ZM52.8825 20.75H44.7914C44.6166 28.1559 41.8647 34.5332 37.8957 37.757C46.3857 35.5565 52.5191 28.7266 52.8825 20.75ZM39.7878 33.3336C41.8258 30.1492 43.1678 25.7253 43.2909 20.75H32.75V38.4582C35.3339 38.1702 37.8263 36.3983 39.7878 33.3336ZM39.7878 6.66644C41.8258 9.85081 43.1678 14.2747 43.2909 19.25H32.75V1.54175C35.3339 1.82978 37.8263 3.60172 39.7878 6.66644ZM24.2126 6.66644C26.174 3.60188 28.6662 1.82996 31.25 1.5418V19.25H20.7095C20.8326 14.2747 22.1746 9.85081 24.2126 6.66644ZM26.1053 2.24258C22.1359 5.4662 19.3838 11.8438 19.209 19.25H11.1167C11.4801 11.2728 17.6144 4.44256 26.1053 2.24258ZM26.1053 37.7574C17.6144 35.5574 11.4801 28.7272 11.1167 20.75H19.209C19.3838 28.1562 22.1359 34.5338 26.1053 37.7574Z" />
</svg>