<svg width="1200" height="630" viewBox="0 0 1200 630" fill="none" xmlns="http://www.w3.org/2000/svg">
  <g clip-path="url(#clip0_3539_47)">
    <path d="M1200 0H0V630H1200V0Z" fill="#1A1A1A" />
    <path
      d="M0 615C165.685 615 300 480.685 300 315C300 149.315 165.685 15 0 15C-165.685 15 -300 149.315 -300 315C-300 480.685 -165.685 615 0 615Z"
      stroke="#444444" stroke-width="2" />
    <path
      d="M462 307C542.634 307 608 241.634 608 161C608 80.3664 542.634 15 462 15C381.366 15 316 80.3664 316 161C316 241.634 381.366 307 462 307Z"
      stroke="#444444" stroke-width="2" />
    <path
      d="M770 307C850.634 307 916 241.634 916 161C916 80.3664 850.634 15 770 15C689.366 15 624 80.3664 624 161C624 241.634 689.366 307 770 307Z"
      stroke="#444444" stroke-width="2" />
    <path
      d="M462 615C542.634 615 608 549.634 608 469C608 388.366 542.634 323 462 323C381.366 323 316 388.366 316 469C316 549.634 381.366 615 462 615Z"
      stroke="#444444" stroke-width="2" />
    <path
      d="M693 461C731.108 461 762 430.108 762 392C762 353.892 731.108 323 693 323C654.892 323 624 353.892 624 392C624 430.108 654.892 461 693 461Z"
      stroke="#FF0004" stroke-width="2" />
    <path
      d="M693 615C731.108 615 762 584.108 762 546C762 507.892 731.108 477 693 477C654.892 477 624 507.892 624 546C624 584.108 654.892 615 693 615Z"
      stroke="#444444" stroke-width="2" />
    <path
      d="M847 461C885.108 461 916 430.108 916 392C916 353.892 885.108 323 847 323C808.892 323 778 353.892 778 392C778 430.108 808.892 461 847 461Z"
      stroke="#444444" stroke-width="2" />
    <path
      d="M847 615C885.108 615 916 584.108 916 546C916 507.892 885.108 477 847 477C808.892 477 778 507.892 778 546C778 584.108 808.892 615 847 615Z"
      stroke="#FF0004" stroke-width="2" />
    <path
      d="M1242 615C1407.69 615 1542 480.685 1542 315C1542 149.315 1407.69 15 1242 15C1076.31 15 942 149.315 942 315C942 480.685 1076.31 615 1242 615Z"
      fill="#FBC116" />
    <text fill="white" xml:space="preserve" style="white-space: pre" font-family="Inter" font-size="36"
      letter-spacing="0em">
      <tspan x="80" y="195.091">TITLE_PLACEHOLDER </tspan>
    </text>
    <text fill="#888888" xml:space="preserve" style="white-space: pre" font-family="Inter" font-size="24"
      letter-spacing="0em">
      <tspan x="80.4297" y="560.227">litvinovich.dev </tspan>
    </text>
  </g>
  <defs>
    <clipPath id="clip0_3539_47">
      <rect width="1200" height="630" fill="white" />
    </clipPath>
  </defs>
</svg>