<svg width="40" height="40" viewBox="0 0 40 40" fill="currentColor" xmlns="http://www.w3.org/2000/svg">
  <path fill-rule="evenodd" clip-rule="evenodd"
    d="M0 20C0 8.9543 8.9543 0 20 0C31.0457 0 40 8.9543 40 20C40 31.0457 31.0457 40 20 40C8.9543 40 0 31.0457 0 20ZM38.5 20C38.5 30.2173 30.2173 38.5 20 38.5C15.5429 38.5 11.454 36.9238 8.26018 34.2985C10.6848 35.6987 13.4988 36.5 16.5 36.5C25.6127 36.5 33 29.1127 33 20C33 10.8873 25.6127 3.5 16.5 3.5C13.4988 3.5 10.6848 4.30126 8.26018 5.70152C11.454 3.07617 15.5429 1.5 20 1.5C30.2173 1.5 38.5 9.78273 38.5 20ZM1.5 20C1.5 24.4183 5.08172 28 9.5 28C13.9183 28 17.5 24.4183 17.5 20C17.5 15.5817 13.9183 12 9.5 12C5.08172 12 1.5 15.5817 1.5 20ZM16.5 35C24.7843 35 31.5 28.2843 31.5 20C31.5 11.7157 24.7843 5 16.5 5C14.3488 5 12.3033 5.45285 10.4538 6.26842C11.2772 6.09234 12.1286 6 13 6C20.1797 6 26 12.268 26 20C26 27.732 20.1797 34 13 34C12.1286 34 11.2772 33.9077 10.4538 33.7316C12.3033 34.5471 14.3488 35 16.5 35ZM24.5 20C24.5 27.0102 19.2485 32.5 13 32.5C9.36453 32.5 6.06656 30.6417 3.944 27.7068C5.50637 28.8351 7.42554 29.5 9.5 29.5C14.7467 29.5 19 25.2467 19 20C19 14.7533 14.7467 10.5 9.5 10.5C7.42554 10.5 5.50638 11.1649 3.94401 12.2932C6.06656 9.35834 9.36453 7.5 13 7.5C19.2485 7.5 24.5 12.9898 24.5 20Z" />
</svg>