<svg width="90" height="90" viewBox="0 0 90 90" fill="currentColor" xmlns="http://www.w3.org/2000/svg">

  <path
    d="M86.8965 26.3799C86.8965 27.2368 87.5912 27.9316 88.4482 27.9316C89.3052 27.9316 89.9999 27.2368 89.9999 26.3799C89.9999 25.5229 89.3052 24.8281 88.4482 24.8281C87.5912 24.8281 86.8965 25.5229 86.8965 26.3799Z" />
  <path
    d="M86.8965 32.5866C86.8965 33.4436 87.5912 34.1384 88.4482 34.1384C89.3052 34.1384 89.9999 33.4436 89.9999 32.5866C89.9999 31.7296 89.3052 31.0349 88.4482 31.0349C87.5912 31.0349 86.8965 31.7296 86.8965 32.5866Z" />
  <path
    d="M86.8965 38.7927C86.8965 39.6497 87.5912 40.3444 88.4482 40.3444C89.3052 40.3444 89.9999 39.6497 89.9999 38.7927C89.9999 37.9357 89.3052 37.241 88.4482 37.241C87.5912 37.241 86.8965 37.9357 86.8965 38.7927Z" />
  <path
    d="M86.8965 45C86.8965 45.857 87.5912 46.5517 88.4482 46.5517C89.3052 46.5517 89.9999 45.857 89.9999 45C89.9999 44.143 89.3052 43.4482 88.4482 43.4482C87.5912 43.4482 86.8965 44.143 86.8965 45Z" />
  <path
    d="M86.8965 48.1035C86.8965 48.9605 87.5912 49.6552 88.4482 49.6552C89.3052 49.6552 89.9999 48.9605 89.9999 48.1035C89.9999 47.2465 89.3052 46.5518 88.4482 46.5518C87.5912 46.5518 86.8965 47.2465 86.8965 48.1035Z" />
  <path
    d="M86.8965 51.207C86.8965 52.064 87.5912 52.7587 88.4482 52.7587C89.3052 52.7587 89.9999 52.064 89.9999 51.207C89.9999 50.35 89.3052 49.6553 88.4482 49.6553C87.5912 49.6553 86.8965 50.35 86.8965 51.207Z" />
  <path
    d="M86.8965 57.414C86.8965 58.271 87.5912 58.9658 88.4482 58.9658C89.3052 58.9658 89.9999 58.271 89.9999 57.414C89.9999 56.557 89.3052 55.8623 88.4482 55.8623C87.5912 55.8623 86.8965 56.557 86.8965 57.414Z" />
  <path
    d="M86.8965 63.6213C86.8965 64.4783 87.5912 65.173 88.4482 65.173C89.3052 65.173 89.9999 64.4783 89.9999 63.6213C89.9999 62.7643 89.3052 62.0696 88.4482 62.0696C87.5912 62.0696 86.8965 62.7643 86.8965 63.6213Z" />
  <path
    d="M83.793 29.4826C83.793 30.3396 84.4877 31.0344 85.3447 31.0344C86.2017 31.0344 86.8964 30.3396 86.8964 29.4826C86.8964 28.6256 86.2017 27.9309 85.3447 27.9309C84.4877 27.9309 83.793 28.6256 83.793 29.4826Z" />
  <path
    d="M83.793 32.5866C83.793 33.4436 84.4877 34.1384 85.3447 34.1384C86.2017 34.1384 86.8964 33.4436 86.8964 32.5866C86.8964 31.7296 86.2017 31.0349 85.3447 31.0349C84.4877 31.0349 83.793 31.7296 83.793 32.5866Z" />
  <path
    d="M83.793 35.6894C83.793 36.5464 84.4877 37.2412 85.3447 37.2412C86.2017 37.2412 86.8964 36.5464 86.8964 35.6894C86.8964 34.8324 86.2017 34.1377 85.3447 34.1377C84.4877 34.1377 83.793 34.8324 83.793 35.6894Z" />
  <path
    d="M83.793 38.7927C83.793 39.6497 84.4877 40.3444 85.3447 40.3444C86.2017 40.3444 86.8964 39.6497 86.8964 38.7927C86.8964 37.9357 86.2017 37.241 85.3447 37.241C84.4877 37.241 83.793 37.9357 83.793 38.7927Z" />
  <path
    d="M83.793 41.8965C83.793 42.7534 84.4877 43.4482 85.3447 43.4482C86.2017 43.4482 86.8964 42.7534 86.8964 41.8965C86.8964 41.0395 86.2017 40.3447 85.3447 40.3447C84.4877 40.3447 83.793 41.0395 83.793 41.8965Z" />
  <path
    d="M83.793 45C83.793 45.857 84.4877 46.5517 85.3447 46.5517C86.2017 46.5517 86.8964 45.857 86.8964 45C86.8964 44.143 86.2017 43.4482 85.3447 43.4482C84.4877 43.4482 83.793 44.143 83.793 45Z" />
  <path
    d="M83.793 57.414C83.793 58.271 84.4877 58.9658 85.3447 58.9658C86.2017 58.9658 86.8964 58.271 86.8964 57.414C86.8964 56.557 86.2017 55.8623 85.3447 55.8623C84.4877 55.8623 83.793 56.557 83.793 57.414Z" />
  <path
    d="M83.793 63.6213C83.793 64.4783 84.4877 65.173 85.3447 65.173C86.2017 65.173 86.8964 64.4783 86.8964 63.6213C86.8964 62.7643 86.2017 62.0696 85.3447 62.0696C84.4877 62.0696 83.793 62.7643 83.793 63.6213Z" />
  <path
    d="M80.6895 26.3799C80.6895 27.2368 81.3842 27.9316 82.2412 27.9316C83.0982 27.9316 83.7929 27.2368 83.7929 26.3799C83.7929 25.5229 83.0982 24.8281 82.2412 24.8281C81.3842 24.8281 80.6895 25.5229 80.6895 26.3799Z" />
  <path
    d="M80.6895 29.4826C80.6895 30.3396 81.3842 31.0344 82.2412 31.0344C83.0982 31.0344 83.7929 30.3396 83.7929 29.4826C83.7929 28.6256 83.0982 27.9309 82.2412 27.9309C81.3842 27.9309 80.6895 28.6256 80.6895 29.4826Z" />
  <path
    d="M80.6895 32.5866C80.6895 33.4436 81.3842 34.1384 82.2412 34.1384C83.0982 34.1384 83.7929 33.4436 83.7929 32.5866C83.7929 31.7296 83.0982 31.0349 82.2412 31.0349C81.3842 31.0349 80.6895 31.7296 80.6895 32.5866Z" />
  <path
    d="M80.6895 45C80.6895 45.857 81.3842 46.5517 82.2412 46.5517C83.0982 46.5517 83.7929 45.857 83.7929 45C83.7929 44.143 83.0982 43.4482 82.2412 43.4482C81.3842 43.4482 80.6895 44.143 80.6895 45Z" />
  <path
    d="M80.6895 48.1035C80.6895 48.9605 81.3842 49.6552 82.2412 49.6552C83.0982 49.6552 83.7929 48.9605 83.7929 48.1035C83.7929 47.2465 83.0982 46.5518 82.2412 46.5518C81.3842 46.5518 80.6895 47.2465 80.6895 48.1035Z" />
  <path
    d="M80.6895 63.6213C80.6895 64.4783 81.3842 65.173 82.2412 65.173C83.0982 65.173 83.7929 64.4783 83.7929 63.6213C83.7929 62.7643 83.0982 62.0696 82.2412 62.0696C81.3842 62.0696 80.6895 62.7643 80.6895 63.6213Z" />
  <path
    d="M77.5859 26.3799C77.5859 27.2368 78.2807 27.9316 79.1377 27.9316C79.9947 27.9316 80.6894 27.2368 80.6894 26.3799C80.6894 25.5229 79.9947 24.8281 79.1377 24.8281C78.2807 24.8281 77.5859 25.5229 77.5859 26.3799Z" />
  <path
    d="M77.5859 29.4826C77.5859 30.3396 78.2807 31.0344 79.1377 31.0344C79.9947 31.0344 80.6894 30.3396 80.6894 29.4826C80.6894 28.6256 79.9947 27.9309 79.1377 27.9309C78.2807 27.9309 77.5859 28.6256 77.5859 29.4826Z" />
  <path
    d="M77.5859 32.5866C77.5859 33.4436 78.2807 34.1384 79.1377 34.1384C79.9947 34.1384 80.6894 33.4436 80.6894 32.5866C80.6894 31.7296 79.9947 31.0349 79.1377 31.0349C78.2807 31.0349 77.5859 31.7296 77.5859 32.5866Z" />
  <path
    d="M77.5859 38.7927C77.5859 39.6497 78.2807 40.3444 79.1377 40.3444C79.9947 40.3444 80.6894 39.6497 80.6894 38.7927C80.6894 37.9357 79.9947 37.241 79.1377 37.241C78.2807 37.241 77.5859 37.9357 77.5859 38.7927Z" />
  <path
    d="M77.5859 45C77.5859 45.857 78.2807 46.5517 79.1377 46.5517C79.9947 46.5517 80.6894 45.857 80.6894 45C80.6894 44.143 79.9947 43.4482 79.1377 43.4482C78.2807 43.4482 77.5859 44.143 77.5859 45Z" />
  <path
    d="M77.5859 48.1035C77.5859 48.9605 78.2807 49.6552 79.1377 49.6552C79.9947 49.6552 80.6894 48.9605 80.6894 48.1035C80.6894 47.2465 79.9947 46.5518 79.1377 46.5518C78.2807 46.5518 77.5859 47.2465 77.5859 48.1035Z" />
  <path
    d="M77.5859 51.207C77.5859 52.064 78.2807 52.7587 79.1377 52.7587C79.9947 52.7587 80.6894 52.064 80.6894 51.207C80.6894 50.35 79.9947 49.6553 79.1377 49.6553C78.2807 49.6553 77.5859 50.35 77.5859 51.207Z" />
  <path
    d="M74.4824 26.3799C74.4824 27.2368 75.1772 27.9316 76.0341 27.9316C76.8911 27.9316 77.5859 27.2368 77.5859 26.3799C77.5859 25.5229 76.8911 24.8281 76.0341 24.8281C75.1772 24.8281 74.4824 25.5229 74.4824 26.3799Z" />
  <path
    d="M74.4824 35.6894C74.4824 36.5464 75.1772 37.2412 76.0341 37.2412C76.8911 37.2412 77.5859 36.5464 77.5859 35.6894C77.5859 34.8324 76.8911 34.1377 76.0341 34.1377C75.1772 34.1377 74.4824 34.8324 74.4824 35.6894Z" />
  <path
    d="M74.4829 38.7927C74.4829 39.6497 75.1776 40.3444 76.0346 40.3444C76.8916 40.3444 77.5864 39.6497 77.5864 38.7927C77.5864 37.9357 76.8916 37.241 76.0346 37.241C75.1776 37.241 74.4829 37.9357 74.4829 38.7927Z" />
  <path
    d="M74.4829 48.1035C74.4829 48.9605 75.1776 49.6552 76.0346 49.6552C76.8916 49.6552 77.5864 48.9605 77.5864 48.1035C77.5864 47.2465 76.8916 46.5518 76.0346 46.5518C75.1776 46.5518 74.4829 47.2465 74.4829 48.1035Z" />
  <path
    d="M74.4829 54.3095C74.4829 55.1665 75.1776 55.8613 76.0346 55.8613C76.8916 55.8613 77.5864 55.1665 77.5864 54.3095C77.5864 53.4525 76.8916 52.7578 76.0346 52.7578C75.1776 52.7578 74.4829 53.4525 74.4829 54.3095Z" />
  <path
    d="M74.4824 57.414C74.4824 58.271 75.1772 58.9658 76.0341 58.9658C76.8911 58.9658 77.5859 58.271 77.5859 57.414C77.5859 56.557 76.8911 55.8623 76.0341 55.8623C75.1772 55.8623 74.4824 56.557 74.4824 57.414Z" />
  <path
    d="M74.4824 60.5175C74.4824 61.3745 75.1772 62.0693 76.0341 62.0693C76.8911 62.0693 77.5859 61.3745 77.5859 60.5175C77.5859 59.6606 76.8911 58.9658 76.0341 58.9658C75.1772 58.9658 74.4824 59.6606 74.4824 60.5175Z" />
  <path
    d="M71.3789 32.5866C71.3789 33.4436 72.0736 34.1384 72.9306 34.1384C73.7876 34.1384 74.4824 33.4436 74.4824 32.5866C74.4824 31.7296 73.7876 31.0349 72.9306 31.0349C72.0736 31.0349 71.3789 31.7296 71.3789 32.5866Z" />
  <path
    d="M71.3789 35.6894C71.3789 36.5464 72.0736 37.2412 72.9306 37.2412C73.7876 37.2412 74.4824 36.5464 74.4824 35.6894C74.4824 34.8324 73.7876 34.1377 72.9306 34.1377C72.0736 34.1377 71.3789 34.8324 71.3789 35.6894Z" />
  <path
    d="M71.3789 45C71.3789 45.857 72.0736 46.5517 72.9306 46.5517C73.7876 46.5517 74.4824 45.857 74.4824 45C74.4824 44.143 73.7876 43.4482 72.9306 43.4482C72.0736 43.4482 71.3789 44.143 71.3789 45Z" />
  <path
    d="M71.3789 51.207C71.3789 52.064 72.0736 52.7587 72.9306 52.7587C73.7876 52.7587 74.4824 52.064 74.4824 51.207C74.4824 50.35 73.7876 49.6553 72.9306 49.6553C72.0736 49.6553 71.3789 50.35 71.3789 51.207Z" />
  <path
    d="M71.3789 54.3095C71.3789 55.1665 72.0736 55.8613 72.9306 55.8613C73.7876 55.8613 74.4824 55.1665 74.4824 54.3095C74.4824 53.4525 73.7876 52.7578 72.9306 52.7578C72.0736 52.7578 71.3789 53.4525 71.3789 54.3095Z" />
  <path
    d="M71.3789 57.414C71.3789 58.271 72.0736 58.9658 72.9306 58.9658C73.7876 58.9658 74.4824 58.271 74.4824 57.414C74.4824 56.557 73.7876 55.8623 72.9306 55.8623C72.0736 55.8623 71.3789 56.557 71.3789 57.414Z" />
  <path
    d="M68.2754 26.3799C68.2754 27.2368 68.9701 27.9316 69.8271 27.9316C70.6841 27.9316 71.3788 27.2368 71.3788 26.3799C71.3788 25.5229 70.6841 24.8281 69.8271 24.8281C68.9701 24.8281 68.2754 25.5229 68.2754 26.3799Z" />
  <path
    d="M68.2754 32.5866C68.2754 33.4436 68.9701 34.1384 69.8271 34.1384C70.6841 34.1384 71.3788 33.4436 71.3788 32.5866C71.3788 31.7296 70.6841 31.0349 69.8271 31.0349C68.9701 31.0349 68.2754 31.7296 68.2754 32.5866Z" />
  <path
    d="M68.2754 38.7927C68.2754 39.6497 68.9701 40.3444 69.8271 40.3444C70.6841 40.3444 71.3788 39.6497 71.3788 38.7927C71.3788 37.9357 70.6841 37.241 69.8271 37.241C68.9701 37.241 68.2754 37.9357 68.2754 38.7927Z" />
  <path
    d="M68.2754 45C68.2754 45.857 68.9701 46.5517 69.8271 46.5517C70.6841 46.5517 71.3788 45.857 71.3788 45C71.3788 44.143 70.6841 43.4482 69.8271 43.4482C68.9701 43.4482 68.2754 44.143 68.2754 45Z" />
  <path
    d="M68.2754 51.207C68.2754 52.064 68.9701 52.7587 69.8271 52.7587C70.6841 52.7587 71.3788 52.064 71.3788 51.207C71.3788 50.35 70.6841 49.6553 69.8271 49.6553C68.9701 49.6553 68.2754 50.35 68.2754 51.207Z" />
  <path
    d="M68.2754 57.414C68.2754 58.271 68.9701 58.9658 69.8271 58.9658C70.6841 58.9658 71.3788 58.271 71.3788 57.414C71.3788 56.557 70.6841 55.8623 69.8271 55.8623C68.9701 55.8623 68.2754 56.557 68.2754 57.414Z" />
  <path
    d="M68.2754 63.6213C68.2754 64.4783 68.9701 65.173 69.8271 65.173C70.6841 65.173 71.3788 64.4783 71.3788 63.6213C71.3788 62.7643 70.6841 62.0696 69.8271 62.0696C68.9701 62.0696 68.2754 62.7643 68.2754 63.6213Z" />
  <path
    d="M65.1719 32.5866C65.1719 33.4436 65.8666 34.1384 66.7236 34.1384C67.5806 34.1384 68.2753 33.4436 68.2753 32.5866C68.2753 31.7296 67.5806 31.0349 66.7236 31.0349C65.8666 31.0349 65.1719 31.7296 65.1719 32.5866Z" />
  <path
    d="M65.1719 38.7927C65.1719 39.6497 65.8666 40.3444 66.7236 40.3444C67.5806 40.3444 68.2753 39.6497 68.2753 38.7927C68.2753 37.9357 67.5806 37.241 66.7236 37.241C65.8666 37.241 65.1719 37.9357 65.1719 38.7927Z" />
  <path
    d="M65.1719 48.1035C65.1719 48.9605 65.8666 49.6552 66.7236 49.6552C67.5806 49.6552 68.2753 48.9605 68.2753 48.1035C68.2753 47.2465 67.5806 46.5518 66.7236 46.5518C65.8666 46.5518 65.1719 47.2465 65.1719 48.1035Z" />
  <path
    d="M65.1719 51.207C65.1719 52.064 65.8666 52.7587 66.7236 52.7587C67.5806 52.7587 68.2753 52.064 68.2753 51.207C68.2753 50.35 67.5806 49.6553 66.7236 49.6553C65.8666 49.6553 65.1719 50.35 65.1719 51.207Z" />
  <path
    d="M65.1719 54.3095C65.1719 55.1665 65.8666 55.8613 66.7236 55.8613C67.5806 55.8613 68.2753 55.1665 68.2753 54.3095C68.2753 53.4525 67.5806 52.7578 66.7236 52.7578C65.8666 52.7578 65.1719 53.4525 65.1719 54.3095Z" />
  <path
    d="M65.1719 57.414C65.1719 58.271 65.8666 58.9658 66.7236 58.9658C67.5806 58.9658 68.2753 58.271 68.2753 57.414C68.2753 56.557 67.5806 55.8623 66.7236 55.8623C65.8666 55.8623 65.1719 56.557 65.1719 57.414Z" />
  <path
    d="M65.1719 60.5175C65.1719 61.3745 65.8666 62.0693 66.7236 62.0693C67.5806 62.0693 68.2753 61.3745 68.2753 60.5175C68.2753 59.6606 67.5806 58.9658 66.7236 58.9658C65.8666 58.9658 65.1719 59.6606 65.1719 60.5175Z" />
  <path
    d="M65.1719 63.6213C65.1719 64.4783 65.8666 65.173 66.7236 65.173C67.5806 65.173 68.2753 64.4783 68.2753 63.6213C68.2753 62.7643 67.5806 62.0696 66.7236 62.0696C65.8666 62.0696 65.1719 62.7643 65.1719 63.6213Z" />
  <path
    d="M62.0684 1.55173C62.0684 2.40872 62.7631 3.10346 63.6201 3.10346C64.4771 3.10346 65.1718 2.40872 65.1718 1.55173C65.1718 0.694732 64.4771 0 63.6201 0C62.7631 0 62.0684 0.694732 62.0684 1.55173Z" />
  <path
    d="M62.0688 4.65524C62.0688 5.51224 62.7636 6.20697 63.6206 6.20697C64.4776 6.20697 65.1723 5.51224 65.1723 4.65524C65.1723 3.79825 64.4776 3.10352 63.6206 3.10352C62.7636 3.10352 62.0688 3.79825 62.0688 4.65524Z" />
  <path
    d="M62.0684 7.75778C62.0684 8.61478 62.7631 9.30951 63.6201 9.30951C64.4771 9.30951 65.1718 8.61478 65.1718 7.75778C65.1718 6.90079 64.4771 6.20605 63.6201 6.20605C62.7631 6.20605 62.0684 6.90079 62.0684 7.75778Z" />
  <path
    d="M62.0688 10.8623C62.0688 11.7193 62.7636 12.414 63.6206 12.414C64.4776 12.414 65.1723 11.7193 65.1723 10.8623C65.1723 10.0053 64.4776 9.31055 63.6206 9.31055C62.7636 9.31055 62.0688 10.0053 62.0688 10.8623Z" />
  <path
    d="M62.0688 20.1728C62.0688 21.0298 62.7636 21.7245 63.6206 21.7245C64.4776 21.7245 65.1723 21.0298 65.1723 20.1728C65.1723 19.3158 64.4776 18.6211 63.6206 18.6211C62.7636 18.6211 62.0688 19.3158 62.0688 20.1728Z" />
  <path
    d="M62.0688 26.3799C62.0688 27.2368 62.7636 27.9316 63.6206 27.9316C64.4776 27.9316 65.1723 27.2368 65.1723 26.3799C65.1723 25.5229 64.4776 24.8281 63.6206 24.8281C62.7636 24.8281 62.0688 25.5229 62.0688 26.3799Z" />
  <path
    d="M62.0684 32.5866C62.0684 33.4436 62.7631 34.1384 63.6201 34.1384C64.4771 34.1384 65.1718 33.4436 65.1718 32.5866C65.1718 31.7296 64.4771 31.0349 63.6201 31.0349C62.7631 31.0349 62.0684 31.7296 62.0684 32.5866Z" />
  <path
    d="M62.0688 35.6894C62.0688 36.5464 62.7636 37.2412 63.6206 37.2412C64.4776 37.2412 65.1723 36.5464 65.1723 35.6894C65.1723 34.8324 64.4776 34.1377 63.6206 34.1377C62.7636 34.1377 62.0688 34.8324 62.0688 35.6894Z" />
  <path
    d="M62.0684 38.7927C62.0684 39.6497 62.7631 40.3444 63.6201 40.3444C64.4771 40.3444 65.1718 39.6497 65.1718 38.7927C65.1718 37.9357 64.4771 37.241 63.6201 37.241C62.7631 37.241 62.0684 37.9357 62.0684 38.7927Z" />
  <path
    d="M62.0688 41.8965C62.0688 42.7534 62.7636 43.4482 63.6206 43.4482C64.4776 43.4482 65.1723 42.7534 65.1723 41.8965C65.1723 41.0395 64.4776 40.3447 63.6206 40.3447C62.7636 40.3447 62.0688 41.0395 62.0688 41.8965Z" />
  <path
    d="M62.0688 51.207C62.0688 52.064 62.7636 52.7587 63.6206 52.7587C64.4776 52.7587 65.1723 52.064 65.1723 51.207C65.1723 50.35 64.4776 49.6553 63.6206 49.6553C62.7636 49.6553 62.0688 50.35 62.0688 51.207Z" />
  <path
    d="M62.0684 54.3095C62.0684 55.1665 62.7631 55.8613 63.6201 55.8613C64.4771 55.8613 65.1718 55.1665 65.1718 54.3095C65.1718 53.4525 64.4771 52.7578 63.6201 52.7578C62.7631 52.7578 62.0684 53.4525 62.0684 54.3095Z" />
  <path
    d="M62.0688 57.414C62.0688 58.271 62.7636 58.9658 63.6206 58.9658C64.4776 58.9658 65.1723 58.271 65.1723 57.414C65.1723 56.557 64.4776 55.8623 63.6206 55.8623C62.7636 55.8623 62.0688 56.557 62.0688 57.414Z" />
  <path
    d="M62.0688 60.5175C62.0688 61.3745 62.7636 62.0693 63.6206 62.0693C64.4776 62.0693 65.1723 61.3745 65.1723 60.5175C65.1723 59.6606 64.4776 58.9658 63.6206 58.9658C62.7636 58.9658 62.0688 59.6606 62.0688 60.5175Z" />
  <path
    d="M62.0688 66.7246C62.0688 67.5816 62.7636 68.2763 63.6206 68.2763C64.4776 68.2763 65.1723 67.5816 65.1723 66.7246C65.1723 65.8676 64.4776 65.1729 63.6206 65.1729C62.7636 65.1729 62.0688 65.8676 62.0688 66.7246Z" />
  <path
    d="M62.0688 76.0341C62.0688 76.8911 62.7636 77.5859 63.6206 77.5859C64.4776 77.5859 65.1723 76.8911 65.1723 76.0341C65.1723 75.1772 64.4776 74.4824 63.6206 74.4824C62.7636 74.4824 62.0688 75.1772 62.0688 76.0341Z" />
  <path
    d="M62.0684 79.1384C62.0684 79.9954 62.7631 80.6901 63.6201 80.6901C64.4771 80.6901 65.1718 79.9954 65.1718 79.1384C65.1718 78.2814 64.4771 77.5867 63.6201 77.5867C62.7631 77.5867 62.0684 78.2814 62.0684 79.1384Z" />
  <path
    d="M62.0688 82.2412C62.0688 83.0982 62.7636 83.7929 63.6206 83.7929C64.4776 83.7929 65.1723 83.0982 65.1723 82.2412C65.1723 81.3842 64.4776 80.6895 63.6206 80.6895C62.7636 80.6895 62.0688 81.3842 62.0688 82.2412Z" />
  <path
    d="M62.0688 88.4482C62.0688 89.3052 62.7636 89.9999 63.6206 89.9999C64.4776 89.9999 65.1723 89.3052 65.1723 88.4482C65.1723 87.5912 64.4776 86.8965 63.6206 86.8965C62.7636 86.8965 62.0688 87.5912 62.0688 88.4482Z" />
  <path
    d="M58.9653 4.65524C58.9653 5.51224 59.6601 6.20697 60.5171 6.20697C61.3741 6.20697 62.0688 5.51224 62.0688 4.65524C62.0688 3.79825 61.3741 3.10352 60.5171 3.10352C59.6601 3.10352 58.9653 3.79825 58.9653 4.65524Z" />
  <path
    d="M58.9653 7.75778C58.9653 8.61478 59.6601 9.30951 60.5171 9.30951C61.3741 9.30951 62.0688 8.61478 62.0688 7.75778C62.0688 6.90079 61.3741 6.20605 60.5171 6.20605C59.6601 6.20605 58.9653 6.90079 58.9653 7.75778Z" />
  <path
    d="M58.9653 13.9648C58.9653 14.8218 59.6601 15.5165 60.5171 15.5165C61.3741 15.5165 62.0688 14.8218 62.0688 13.9648C62.0688 13.1078 61.3741 12.4131 60.5171 12.4131C59.6601 12.4131 58.9653 13.1078 58.9653 13.9648Z" />
  <path
    d="M58.9653 23.2754C58.9653 24.1324 59.6601 24.8271 60.5171 24.8271C61.3741 24.8271 62.0688 24.1324 62.0688 23.2754C62.0688 22.4184 61.3741 21.7236 60.5171 21.7236C59.6601 21.7236 58.9653 22.4184 58.9653 23.2754Z" />
  <path
    d="M58.9653 26.3799C58.9653 27.2368 59.6601 27.9316 60.5171 27.9316C61.3741 27.9316 62.0688 27.2368 62.0688 26.3799C62.0688 25.5229 61.3741 24.8281 60.5171 24.8281C59.6601 24.8281 58.9653 25.5229 58.9653 26.3799Z" />
  <path
    d="M58.9653 32.5866C58.9653 33.4436 59.6601 34.1384 60.5171 34.1384C61.3741 34.1384 62.0688 33.4436 62.0688 32.5866C62.0688 31.7296 61.3741 31.0349 60.5171 31.0349C59.6601 31.0349 58.9653 31.7296 58.9653 32.5866Z" />
  <path
    d="M58.9653 38.7927C58.9653 39.6497 59.6601 40.3444 60.5171 40.3444C61.3741 40.3444 62.0688 39.6497 62.0688 38.7927C62.0688 37.9357 61.3741 37.241 60.5171 37.241C59.6601 37.241 58.9653 37.9357 58.9653 38.7927Z" />
  <path
    d="M58.9653 45C58.9653 45.857 59.6601 46.5517 60.5171 46.5517C61.3741 46.5517 62.0688 45.857 62.0688 45C62.0688 44.143 61.3741 43.4482 60.5171 43.4482C59.6601 43.4482 58.9653 44.143 58.9653 45Z" />
  <path
    d="M58.9653 57.414C58.9653 58.271 59.6601 58.9658 60.5171 58.9658C61.3741 58.9658 62.0688 58.271 62.0688 57.414C62.0688 56.557 61.3741 55.8623 60.5171 55.8623C59.6601 55.8623 58.9653 56.557 58.9653 57.414Z" />
  <path
    d="M58.9653 66.7246C58.9653 67.5816 59.6601 68.2763 60.5171 68.2763C61.3741 68.2763 62.0688 67.5816 62.0688 66.7246C62.0688 65.8676 61.3741 65.1729 60.5171 65.1729C59.6601 65.1729 58.9653 65.8676 58.9653 66.7246Z" />
  <path
    d="M58.9653 72.9314C58.9653 73.7884 59.6601 74.4831 60.5171 74.4831C61.3741 74.4831 62.0688 73.7884 62.0688 72.9314C62.0688 72.0744 61.3741 71.3796 60.5171 71.3796C59.6601 71.3796 58.9653 72.0744 58.9653 72.9314Z" />
  <path
    d="M58.9653 76.0341C58.9653 76.8911 59.6601 77.5859 60.5171 77.5859C61.3741 77.5859 62.0688 76.8911 62.0688 76.0341C62.0688 75.1772 61.3741 74.4824 60.5171 74.4824C59.6601 74.4824 58.9653 75.1772 58.9653 76.0341Z" />
  <path
    d="M58.9653 79.1384C58.9653 79.9954 59.6601 80.6901 60.5171 80.6901C61.3741 80.6901 62.0688 79.9954 62.0688 79.1384C62.0688 78.2814 61.3741 77.5867 60.5171 77.5867C59.6601 77.5867 58.9653 78.2814 58.9653 79.1384Z" />
  <path
    d="M58.9653 85.3445C58.9653 86.2014 59.6601 86.8962 60.5171 86.8962C61.3741 86.8962 62.0688 86.2014 62.0688 85.3445C62.0688 84.4875 61.3741 83.7927 60.5171 83.7927C59.6601 83.7927 58.9653 84.4875 58.9653 85.3445Z" />
  <path
    d="M55.8618 1.55173C55.8618 2.40872 56.5565 3.10346 57.4135 3.10346C58.2705 3.10346 58.9653 2.40872 58.9653 1.55173C58.9653 0.694732 58.2705 0 57.4135 0C56.5565 0 55.8618 0.694732 55.8618 1.55173Z" />
  <path
    d="M55.8618 4.65524C55.8618 5.51224 56.5565 6.20697 57.4135 6.20697C58.2705 6.20697 58.9653 5.51224 58.9653 4.65524C58.9653 3.79825 58.2705 3.10352 57.4135 3.10352C56.5565 3.10352 55.8618 3.79825 55.8618 4.65524Z" />
  <path
    d="M55.8618 10.8623C55.8618 11.7193 56.5565 12.414 57.4135 12.414C58.2705 12.414 58.9653 11.7193 58.9653 10.8623C58.9653 10.0053 58.2705 9.31055 57.4135 9.31055C56.5565 9.31055 55.8618 10.0053 55.8618 10.8623Z" />
  <path
    d="M55.8618 13.9648C55.8618 14.8218 56.5565 15.5165 57.4135 15.5165C58.2705 15.5165 58.9653 14.8218 58.9653 13.9648C58.9653 13.1078 58.2705 12.4131 57.4135 12.4131C56.5565 12.4131 55.8618 13.1078 55.8618 13.9648Z" />
  <path
    d="M55.8618 17.0693C55.8618 17.9263 56.5565 18.621 57.4135 18.621C58.2705 18.621 58.9653 17.9263 58.9653 17.0693C58.9653 16.2123 58.2705 15.5176 57.4135 15.5176C56.5565 15.5176 55.8618 16.2123 55.8618 17.0693Z" />
  <path
    d="M55.8618 20.1728C55.8618 21.0298 56.5565 21.7245 57.4135 21.7245C58.2705 21.7245 58.9653 21.0298 58.9653 20.1728C58.9653 19.3158 58.2705 18.6211 57.4135 18.6211C56.5565 18.6211 55.8618 19.3158 55.8618 20.1728Z" />
  <path
    d="M55.8618 29.4826C55.8618 30.3396 56.5565 31.0344 57.4135 31.0344C58.2705 31.0344 58.9653 30.3396 58.9653 29.4826C58.9653 28.6256 58.2705 27.9309 57.4135 27.9309C56.5565 27.9309 55.8618 28.6256 55.8618 29.4826Z" />
  <path
    d="M55.8618 32.5866C55.8618 33.4436 56.5565 34.1384 57.4135 34.1384C58.2705 34.1384 58.9653 33.4436 58.9653 32.5866C58.9653 31.7296 58.2705 31.0349 57.4135 31.0349C56.5565 31.0349 55.8618 31.7296 55.8618 32.5866Z" />
  <path
    d="M55.8618 35.6894C55.8618 36.5464 56.5565 37.2412 57.4135 37.2412C58.2705 37.2412 58.9653 36.5464 58.9653 35.6894C58.9653 34.8324 58.2705 34.1377 57.4135 34.1377C56.5565 34.1377 55.8618 34.8324 55.8618 35.6894Z" />
  <path
    d="M55.8618 38.7927C55.8618 39.6497 56.5565 40.3444 57.4135 40.3444C58.2705 40.3444 58.9653 39.6497 58.9653 38.7927C58.9653 37.9357 58.2705 37.241 57.4135 37.241C56.5565 37.241 55.8618 37.9357 55.8618 38.7927Z" />
  <path
    d="M55.8618 41.8965C55.8618 42.7534 56.5565 43.4482 57.4135 43.4482C58.2705 43.4482 58.9653 42.7534 58.9653 41.8965C58.9653 41.0395 58.2705 40.3447 57.4135 40.3447C56.5565 40.3447 55.8618 41.0395 55.8618 41.8965Z" />
  <path
    d="M55.8618 51.207C55.8618 52.064 56.5565 52.7587 57.4135 52.7587C58.2705 52.7587 58.9653 52.064 58.9653 51.207C58.9653 50.35 58.2705 49.6553 57.4135 49.6553C56.5565 49.6553 55.8618 50.35 55.8618 51.207Z" />
  <path
    d="M55.8618 60.5175C55.8618 61.3745 56.5565 62.0693 57.4135 62.0693C58.2705 62.0693 58.9653 61.3745 58.9653 60.5175C58.9653 59.6606 58.2705 58.9658 57.4135 58.9658C56.5565 58.9658 55.8618 59.6606 55.8618 60.5175Z" />
  <path
    d="M55.8618 63.6213C55.8618 64.4783 56.5565 65.173 57.4135 65.173C58.2705 65.173 58.9653 64.4783 58.9653 63.6213C58.9653 62.7643 58.2705 62.0696 57.4135 62.0696C56.5565 62.0696 55.8618 62.7643 55.8618 63.6213Z" />
  <path
    d="M55.8618 66.7246C55.8618 67.5816 56.5565 68.2763 57.4135 68.2763C58.2705 68.2763 58.9653 67.5816 58.9653 66.7246C58.9653 65.8676 58.2705 65.1729 57.4135 65.1729C56.5565 65.1729 55.8618 65.8676 55.8618 66.7246Z" />
  <path
    d="M55.8618 76.0341C55.8618 76.8911 56.5565 77.5859 57.4135 77.5859C58.2705 77.5859 58.9653 76.8911 58.9653 76.0341C58.9653 75.1772 58.2705 74.4824 57.4135 74.4824C56.5565 74.4824 55.8618 75.1772 55.8618 76.0341Z" />
  <path
    d="M55.8618 79.1384C55.8618 79.9954 56.5565 80.6901 57.4135 80.6901C58.2705 80.6901 58.9653 79.9954 58.9653 79.1384C58.9653 78.2814 58.2705 77.5867 57.4135 77.5867C56.5565 77.5867 55.8618 78.2814 55.8618 79.1384Z" />
  <path
    d="M55.8618 85.3445C55.8618 86.2014 56.5565 86.8962 57.4135 86.8962C58.2705 86.8962 58.9653 86.2014 58.9653 85.3445C58.9653 84.4875 58.2705 83.7927 57.4135 83.7927C56.5565 83.7927 55.8618 84.4875 55.8618 85.3445Z" />
  <path
    d="M52.7583 1.55173C52.7583 2.40872 53.453 3.10346 54.31 3.10346C55.167 3.10346 55.8618 2.40872 55.8618 1.55173C55.8618 0.694732 55.167 0 54.31 0C53.453 0 52.7583 0.694732 52.7583 1.55173Z" />
  <path
    d="M52.7583 10.8623C52.7583 11.7193 53.453 12.414 54.31 12.414C55.167 12.414 55.8618 11.7193 55.8618 10.8623C55.8618 10.0053 55.167 9.31055 54.31 9.31055C53.453 9.31055 52.7583 10.0053 52.7583 10.8623Z" />
  <path
    d="M52.7583 13.9648C52.7583 14.8218 53.453 15.5165 54.31 15.5165C55.167 15.5165 55.8618 14.8218 55.8618 13.9648C55.8618 13.1078 55.167 12.4131 54.31 12.4131C53.453 12.4131 52.7583 13.1078 52.7583 13.9648Z" />
  <path
    d="M52.7583 17.0693C52.7583 17.9263 53.453 18.621 54.31 18.621C55.167 18.621 55.8618 17.9263 55.8618 17.0693C55.8618 16.2123 55.167 15.5176 54.31 15.5176C53.453 15.5176 52.7583 16.2123 52.7583 17.0693Z" />
  <path
    d="M52.7583 23.2754C52.7583 24.1324 53.453 24.8271 54.31 24.8271C55.167 24.8271 55.8618 24.1324 55.8618 23.2754C55.8618 22.4184 55.167 21.7236 54.31 21.7236C53.453 21.7236 52.7583 22.4184 52.7583 23.2754Z" />
  <path
    d="M52.7583 26.3799C52.7583 27.2368 53.453 27.9316 54.31 27.9316C55.167 27.9316 55.8618 27.2368 55.8618 26.3799C55.8618 25.5229 55.167 24.8281 54.31 24.8281C53.453 24.8281 52.7583 25.5229 52.7583 26.3799Z" />
  <path
    d="M52.7583 29.4826C52.7583 30.3396 53.453 31.0344 54.31 31.0344C55.167 31.0344 55.8618 30.3396 55.8618 29.4826C55.8618 28.6256 55.167 27.9309 54.31 27.9309C53.453 27.9309 52.7583 28.6256 52.7583 29.4826Z" />
  <path
    d="M52.7583 32.5866C52.7583 33.4436 53.453 34.1384 54.31 34.1384C55.167 34.1384 55.8618 33.4436 55.8618 32.5866C55.8618 31.7296 55.167 31.0349 54.31 31.0349C53.453 31.0349 52.7583 31.7296 52.7583 32.5866Z" />
  <path
    d="M52.7583 41.8965C52.7583 42.7534 53.453 43.4482 54.31 43.4482C55.167 43.4482 55.8618 42.7534 55.8618 41.8965C55.8618 41.0395 55.167 40.3447 54.31 40.3447C53.453 40.3447 52.7583 41.0395 52.7583 41.8965Z" />
  <path
    d="M52.7583 45C52.7583 45.857 53.453 46.5517 54.31 46.5517C55.167 46.5517 55.8618 45.857 55.8618 45C55.8618 44.143 55.167 43.4482 54.31 43.4482C53.453 43.4482 52.7583 44.143 52.7583 45Z" />
  <path
    d="M52.7583 48.1035C52.7583 48.9605 53.453 49.6552 54.31 49.6552C55.167 49.6552 55.8618 48.9605 55.8618 48.1035C55.8618 47.2465 55.167 46.5518 54.31 46.5518C53.453 46.5518 52.7583 47.2465 52.7583 48.1035Z" />
  <path
    d="M52.7583 54.3095C52.7583 55.1665 53.453 55.8613 54.31 55.8613C55.167 55.8613 55.8618 55.1665 55.8618 54.3095C55.8618 53.4525 55.167 52.7578 54.31 52.7578C53.453 52.7578 52.7583 53.4525 52.7583 54.3095Z" />
  <path
    d="M52.7583 63.6213C52.7583 64.4783 53.453 65.173 54.31 65.173C55.167 65.173 55.8618 64.4783 55.8618 63.6213C55.8618 62.7643 55.167 62.0696 54.31 62.0696C53.453 62.0696 52.7583 62.7643 52.7583 63.6213Z" />
  <path
    d="M52.7583 66.7246C52.7583 67.5816 53.453 68.2763 54.31 68.2763C55.167 68.2763 55.8618 67.5816 55.8618 66.7246C55.8618 65.8676 55.167 65.1729 54.31 65.1729C53.453 65.1729 52.7583 65.8676 52.7583 66.7246Z" />
  <path
    d="M52.7583 72.9314C52.7583 73.7884 53.453 74.4831 54.31 74.4831C55.167 74.4831 55.8618 73.7884 55.8618 72.9314C55.8618 72.0744 55.167 71.3796 54.31 71.3796C53.453 71.3796 52.7583 72.0744 52.7583 72.9314Z" />
  <path
    d="M52.7583 85.3445C52.7583 86.2014 53.453 86.8962 54.31 86.8962C55.167 86.8962 55.8618 86.2014 55.8618 85.3445C55.8618 84.4875 55.167 83.7927 54.31 83.7927C53.453 83.7927 52.7583 84.4875 52.7583 85.3445Z" />
  <path
    d="M49.6548 4.65524C49.6548 5.51224 50.3495 6.20697 51.2065 6.20697C52.0635 6.20697 52.7582 5.51224 52.7582 4.65524C52.7582 3.79825 52.0635 3.10352 51.2065 3.10352C50.3495 3.10352 49.6548 3.79825 49.6548 4.65524Z" />
  <path
    d="M49.6548 7.75778C49.6548 8.61478 50.3495 9.30951 51.2065 9.30951C52.0635 9.30951 52.7582 8.61478 52.7582 7.75778C52.7582 6.90079 52.0635 6.20605 51.2065 6.20605C50.3495 6.20605 49.6548 6.90079 49.6548 7.75778Z" />
  <path
    d="M49.6548 10.8623C49.6548 11.7193 50.3495 12.414 51.2065 12.414C52.0635 12.414 52.7582 11.7193 52.7582 10.8623C52.7582 10.0053 52.0635 9.31055 51.2065 9.31055C50.3495 9.31055 49.6548 10.0053 49.6548 10.8623Z" />
  <path
    d="M49.6548 20.1728C49.6548 21.0298 50.3495 21.7245 51.2065 21.7245C52.0635 21.7245 52.7582 21.0298 52.7582 20.1728C52.7582 19.3158 52.0635 18.6211 51.2065 18.6211C50.3495 18.6211 49.6548 19.3158 49.6548 20.1728Z" />
  <path
    d="M49.6548 23.2754C49.6548 24.1324 50.3495 24.8271 51.2065 24.8271C52.0635 24.8271 52.7582 24.1324 52.7582 23.2754C52.7582 22.4184 52.0635 21.7236 51.2065 21.7236C50.3495 21.7236 49.6548 22.4184 49.6548 23.2754Z" />
  <path
    d="M49.6548 29.4826C49.6548 30.3396 50.3495 31.0344 51.2065 31.0344C52.0635 31.0344 52.7582 30.3396 52.7582 29.4826C52.7582 28.6256 52.0635 27.9309 51.2065 27.9309C50.3495 27.9309 49.6548 28.6256 49.6548 29.4826Z" />
  <path
    d="M49.6548 32.5866C49.6548 33.4436 50.3495 34.1384 51.2065 34.1384C52.0635 34.1384 52.7582 33.4436 52.7582 32.5866C52.7582 31.7296 52.0635 31.0349 51.2065 31.0349C50.3495 31.0349 49.6548 31.7296 49.6548 32.5866Z" />
  <path
    d="M49.6548 38.7927C49.6548 39.6497 50.3495 40.3444 51.2065 40.3444C52.0635 40.3444 52.7582 39.6497 52.7582 38.7927C52.7582 37.9357 52.0635 37.241 51.2065 37.241C50.3495 37.241 49.6548 37.9357 49.6548 38.7927Z" />
  <path
    d="M49.6548 41.8965C49.6548 42.7534 50.3495 43.4482 51.2065 43.4482C52.0635 43.4482 52.7582 42.7534 52.7582 41.8965C52.7582 41.0395 52.0635 40.3447 51.2065 40.3447C50.3495 40.3447 49.6548 41.0395 49.6548 41.8965Z" />
  <path
    d="M49.6548 48.1035C49.6548 48.9605 50.3495 49.6552 51.2065 49.6552C52.0635 49.6552 52.7582 48.9605 52.7582 48.1035C52.7582 47.2465 52.0635 46.5518 51.2065 46.5518C50.3495 46.5518 49.6548 47.2465 49.6548 48.1035Z" />
  <path
    d="M49.6548 51.207C49.6548 52.064 50.3495 52.7587 51.2065 52.7587C52.0635 52.7587 52.7582 52.064 52.7582 51.207C52.7582 50.35 52.0635 49.6553 51.2065 49.6553C50.3495 49.6553 49.6548 50.35 49.6548 51.207Z" />
  <path
    d="M49.6548 54.3095C49.6548 55.1665 50.3495 55.8613 51.2065 55.8613C52.0635 55.8613 52.7582 55.1665 52.7582 54.3095C52.7582 53.4525 52.0635 52.7578 51.2065 52.7578C50.3495 52.7578 49.6548 53.4525 49.6548 54.3095Z" />
  <path
    d="M49.6548 63.6213C49.6548 64.4783 50.3495 65.173 51.2065 65.173C52.0635 65.173 52.7582 64.4783 52.7582 63.6213C52.7582 62.7643 52.0635 62.0696 51.2065 62.0696C50.3495 62.0696 49.6548 62.7643 49.6548 63.6213Z" />
  <path
    d="M49.6548 72.9314C49.6548 73.7884 50.3495 74.4831 51.2065 74.4831C52.0635 74.4831 52.7582 73.7884 52.7582 72.9314C52.7582 72.0744 52.0635 71.3796 51.2065 71.3796C50.3495 71.3796 49.6548 72.0744 49.6548 72.9314Z" />
  <path
    d="M49.6548 76.0341C49.6548 76.8911 50.3495 77.5859 51.2065 77.5859C52.0635 77.5859 52.7582 76.8911 52.7582 76.0341C52.7582 75.1772 52.0635 74.4824 51.2065 74.4824C50.3495 74.4824 49.6548 75.1772 49.6548 76.0341Z" />
  <path
    d="M46.5513 4.65524C46.5513 5.51224 47.246 6.20697 48.103 6.20697C48.96 6.20697 49.6547 5.51224 49.6547 4.65524C49.6547 3.79825 48.96 3.10352 48.103 3.10352C47.246 3.10352 46.5513 3.79825 46.5513 4.65524Z" />
  <path
    d="M46.5513 7.75778C46.5513 8.61478 47.246 9.30951 48.103 9.30951C48.96 9.30951 49.6547 8.61478 49.6547 7.75778C49.6547 6.90079 48.96 6.20605 48.103 6.20605C47.246 6.20605 46.5513 6.90079 46.5513 7.75778Z" />
  <path
    d="M46.5513 10.8623C46.5513 11.7193 47.246 12.414 48.103 12.414C48.96 12.414 49.6547 11.7193 49.6547 10.8623C49.6547 10.0053 48.96 9.31055 48.103 9.31055C47.246 9.31055 46.5513 10.0053 46.5513 10.8623Z" />
  <path
    d="M46.5513 17.0693C46.5513 17.9263 47.246 18.621 48.103 18.621C48.96 18.621 49.6547 17.9263 49.6547 17.0693C49.6547 16.2123 48.96 15.5176 48.103 15.5176C47.246 15.5176 46.5513 16.2123 46.5513 17.0693Z" />
  <path
    d="M46.5513 26.3799C46.5513 27.2368 47.246 27.9316 48.103 27.9316C48.96 27.9316 49.6547 27.2368 49.6547 26.3799C49.6547 25.5229 48.96 24.8281 48.103 24.8281C47.246 24.8281 46.5513 25.5229 46.5513 26.3799Z" />
  <path
    d="M46.5513 29.4826C46.5513 30.3396 47.246 31.0344 48.103 31.0344C48.96 31.0344 49.6547 30.3396 49.6547 29.4826C49.6547 28.6256 48.96 27.9309 48.103 27.9309C47.246 27.9309 46.5513 28.6256 46.5513 29.4826Z" />
  <path
    d="M46.5513 35.6894C46.5513 36.5464 47.246 37.2412 48.103 37.2412C48.96 37.2412 49.6547 36.5464 49.6547 35.6894C49.6547 34.8324 48.96 34.1377 48.103 34.1377C47.246 34.1377 46.5513 34.8324 46.5513 35.6894Z" />
  <path
    d="M46.5513 38.7927C46.5513 39.6497 47.246 40.3444 48.103 40.3444C48.96 40.3444 49.6547 39.6497 49.6547 38.7927C49.6547 37.9357 48.96 37.241 48.103 37.241C47.246 37.241 46.5513 37.9357 46.5513 38.7927Z" />
  <path
    d="M46.5513 45C46.5513 45.857 47.246 46.5517 48.103 46.5517C48.96 46.5517 49.6547 45.857 49.6547 45C49.6547 44.143 48.96 43.4482 48.103 43.4482C47.246 43.4482 46.5513 44.143 46.5513 45Z" />
  <path
    d="M46.5513 51.207C46.5513 52.064 47.246 52.7587 48.103 52.7587C48.96 52.7587 49.6547 52.064 49.6547 51.207C49.6547 50.35 48.96 49.6553 48.103 49.6553C47.246 49.6553 46.5513 50.35 46.5513 51.207Z" />
  <path
    d="M46.5513 54.3095C46.5513 55.1665 47.246 55.8613 48.103 55.8613C48.96 55.8613 49.6547 55.1665 49.6547 54.3095C49.6547 53.4525 48.96 52.7578 48.103 52.7578C47.246 52.7578 46.5513 53.4525 46.5513 54.3095Z" />
  <path
    d="M46.5513 57.414C46.5513 58.271 47.246 58.9658 48.103 58.9658C48.96 58.9658 49.6547 58.271 49.6547 57.414C49.6547 56.557 48.96 55.8623 48.103 55.8623C47.246 55.8623 46.5513 56.557 46.5513 57.414Z" />
  <path
    d="M46.5513 60.5175C46.5513 61.3745 47.246 62.0693 48.103 62.0693C48.96 62.0693 49.6547 61.3745 49.6547 60.5175C49.6547 59.6606 48.96 58.9658 48.103 58.9658C47.246 58.9658 46.5513 59.6606 46.5513 60.5175Z" />
  <path
    d="M46.5513 63.6213C46.5513 64.4783 47.246 65.173 48.103 65.173C48.96 65.173 49.6547 64.4783 49.6547 63.6213C49.6547 62.7643 48.96 62.0696 48.103 62.0696C47.246 62.0696 46.5513 62.7643 46.5513 63.6213Z" />
  <path
    d="M46.5513 69.8274C46.5513 70.6844 47.246 71.3791 48.103 71.3791C48.96 71.3791 49.6547 70.6844 49.6547 69.8274C49.6547 68.9704 48.96 68.2756 48.103 68.2756C47.246 68.2756 46.5513 68.9704 46.5513 69.8274Z" />
  <path
    d="M46.5513 72.9314C46.5513 73.7884 47.246 74.4831 48.103 74.4831C48.96 74.4831 49.6547 73.7884 49.6547 72.9314C49.6547 72.0744 48.96 71.3796 48.103 71.3796C47.246 71.3796 46.5513 72.0744 46.5513 72.9314Z" />
  <path
    d="M46.5513 76.0341C46.5513 76.8911 47.246 77.5859 48.103 77.5859C48.96 77.5859 49.6547 76.8911 49.6547 76.0341C49.6547 75.1772 48.96 74.4824 48.103 74.4824C47.246 74.4824 46.5513 75.1772 46.5513 76.0341Z" />
  <path
    d="M46.5513 79.1384C46.5513 79.9954 47.246 80.6901 48.103 80.6901C48.96 80.6901 49.6547 79.9954 49.6547 79.1384C49.6547 78.2814 48.96 77.5867 48.103 77.5867C47.246 77.5867 46.5513 78.2814 46.5513 79.1384Z" />
  <path
    d="M46.5513 82.2412C46.5513 83.0982 47.246 83.7929 48.103 83.7929C48.96 83.7929 49.6547 83.0982 49.6547 82.2412C49.6547 81.3842 48.96 80.6895 48.103 80.6895C47.246 80.6895 46.5513 81.3842 46.5513 82.2412Z" />
  <path
    d="M43.4478 4.65524C43.4478 5.51224 44.1425 6.20697 44.9995 6.20697C45.8565 6.20697 46.5512 5.51224 46.5512 4.65524C46.5512 3.79825 45.8565 3.10352 44.9995 3.10352C44.1425 3.10352 43.4478 3.79825 43.4478 4.65524Z" />
  <path
    d="M43.4482 17.0693C43.4482 17.9263 44.143 18.621 45 18.621C45.857 18.621 46.5517 17.9263 46.5517 17.0693C46.5517 16.2123 45.857 15.5176 45 15.5176C44.143 15.5176 43.4482 16.2123 43.4482 17.0693Z" />
  <path
    d="M43.4478 20.1728C43.4478 21.0298 44.1425 21.7245 44.9995 21.7245C45.8565 21.7245 46.5512 21.0298 46.5512 20.1728C46.5512 19.3158 45.8565 18.6211 44.9995 18.6211C44.1425 18.6211 43.4478 19.3158 43.4478 20.1728Z" />
  <path
    d="M43.4478 26.3799C43.4478 27.2368 44.1425 27.9316 44.9995 27.9316C45.8565 27.9316 46.5512 27.2368 46.5512 26.3799C46.5512 25.5229 45.8565 24.8281 44.9995 24.8281C44.1425 24.8281 43.4478 25.5229 43.4478 26.3799Z" />
  <path
    d="M43.4482 32.5866C43.4482 33.4436 44.143 34.1384 45 34.1384C45.857 34.1384 46.5517 33.4436 46.5517 32.5866C46.5517 31.7296 45.857 31.0349 45 31.0349C44.143 31.0349 43.4482 31.7296 43.4482 32.5866Z" />
  <path
    d="M43.4478 35.6894C43.4478 36.5464 44.1425 37.2412 44.9995 37.2412C45.8565 37.2412 46.5512 36.5464 46.5512 35.6894C46.5512 34.8324 45.8565 34.1377 44.9995 34.1377C44.1425 34.1377 43.4478 34.8324 43.4478 35.6894Z" />
  <path
    d="M43.4478 41.8965C43.4478 42.7534 44.1425 43.4482 44.9995 43.4482C45.8565 43.4482 46.5512 42.7534 46.5512 41.8965C46.5512 41.0395 45.8565 40.3447 44.9995 40.3447C44.1425 40.3447 43.4478 41.0395 43.4478 41.8965Z" />
  <path
    d="M43.4482 54.3095C43.4482 55.1665 44.143 55.8613 45 55.8613C45.857 55.8613 46.5517 55.1665 46.5517 54.3095C46.5517 53.4525 45.857 52.7578 45 52.7578C44.143 52.7578 43.4482 53.4525 43.4482 54.3095Z" />
  <path
    d="M43.4478 60.5175C43.4478 61.3745 44.1425 62.0693 44.9995 62.0693C45.8565 62.0693 46.5512 61.3745 46.5512 60.5175C46.5512 59.6606 45.8565 58.9658 44.9995 58.9658C44.1425 58.9658 43.4478 59.6606 43.4478 60.5175Z" />
  <path
    d="M43.4478 66.7246C43.4478 67.5816 44.1425 68.2763 44.9995 68.2763C45.8565 68.2763 46.5512 67.5816 46.5512 66.7246C46.5512 65.8676 45.8565 65.1729 44.9995 65.1729C44.1425 65.1729 43.4478 65.8676 43.4478 66.7246Z" />
  <path
    d="M43.4482 69.8274C43.4482 70.6844 44.143 71.3791 45 71.3791C45.857 71.3791 46.5517 70.6844 46.5517 69.8274C46.5517 68.9704 45.857 68.2756 45 68.2756C44.143 68.2756 43.4482 68.9704 43.4482 69.8274Z" />
  <path
    d="M43.4478 76.0341C43.4478 76.8911 44.1425 77.5859 44.9995 77.5859C45.8565 77.5859 46.5512 76.8911 46.5512 76.0341C46.5512 75.1772 45.8565 74.4824 44.9995 74.4824C44.1425 74.4824 43.4478 75.1772 43.4478 76.0341Z" />
  <path
    d="M43.4478 82.2412C43.4478 83.0982 44.1425 83.7929 44.9995 83.7929C45.8565 83.7929 46.5512 83.0982 46.5512 82.2412C46.5512 81.3842 45.8565 80.6895 44.9995 80.6895C44.1425 80.6895 43.4478 81.3842 43.4478 82.2412Z" />
  <path
    d="M40.3447 7.75778C40.3447 8.61478 41.0395 9.30951 41.8965 9.30951C42.7534 9.30951 43.4482 8.61478 43.4482 7.75778C43.4482 6.90079 42.7534 6.20605 41.8965 6.20605C41.0395 6.20605 40.3447 6.90079 40.3447 7.75778Z" />
  <path
    d="M40.3447 17.0693C40.3447 17.9263 41.0395 18.621 41.8965 18.621C42.7534 18.621 43.4482 17.9263 43.4482 17.0693C43.4482 16.2123 42.7534 15.5176 41.8965 15.5176C41.0395 15.5176 40.3447 16.2123 40.3447 17.0693Z" />
  <path
    d="M40.3447 23.2754C40.3447 24.1324 41.0395 24.8271 41.8965 24.8271C42.7534 24.8271 43.4482 24.1324 43.4482 23.2754C43.4482 22.4184 42.7534 21.7236 41.8965 21.7236C41.0395 21.7236 40.3447 22.4184 40.3447 23.2754Z" />
  <path
    d="M40.3447 29.4826C40.3447 30.3396 41.0395 31.0344 41.8965 31.0344C42.7534 31.0344 43.4482 30.3396 43.4482 29.4826C43.4482 28.6256 42.7534 27.9309 41.8965 27.9309C41.0395 27.9309 40.3447 28.6256 40.3447 29.4826Z" />
  <path
    d="M40.3447 35.6894C40.3447 36.5464 41.0395 37.2412 41.8965 37.2412C42.7534 37.2412 43.4482 36.5464 43.4482 35.6894C43.4482 34.8324 42.7534 34.1377 41.8965 34.1377C41.0395 34.1377 40.3447 34.8324 40.3447 35.6894Z" />
  <path
    d="M40.3447 51.207C40.3447 52.064 41.0395 52.7587 41.8965 52.7587C42.7534 52.7587 43.4482 52.064 43.4482 51.207C43.4482 50.35 42.7534 49.6553 41.8965 49.6553C41.0395 49.6553 40.3447 50.35 40.3447 51.207Z" />
  <path
    d="M40.3447 54.3095C40.3447 55.1665 41.0395 55.8613 41.8965 55.8613C42.7534 55.8613 43.4482 55.1665 43.4482 54.3095C43.4482 53.4525 42.7534 52.7578 41.8965 52.7578C41.0395 52.7578 40.3447 53.4525 40.3447 54.3095Z" />
  <path
    d="M40.3447 60.5175C40.3447 61.3745 41.0395 62.0693 41.8965 62.0693C42.7534 62.0693 43.4482 61.3745 43.4482 60.5175C43.4482 59.6606 42.7534 58.9658 41.8965 58.9658C41.0395 58.9658 40.3447 59.6606 40.3447 60.5175Z" />
  <path
    d="M40.3447 63.6213C40.3447 64.4783 41.0395 65.173 41.8965 65.173C42.7534 65.173 43.4482 64.4783 43.4482 63.6213C43.4482 62.7643 42.7534 62.0696 41.8965 62.0696C41.0395 62.0696 40.3447 62.7643 40.3447 63.6213Z" />
  <path
    d="M40.3447 66.7246C40.3447 67.5816 41.0395 68.2763 41.8965 68.2763C42.7534 68.2763 43.4482 67.5816 43.4482 66.7246C43.4482 65.8676 42.7534 65.1729 41.8965 65.1729C41.0395 65.1729 40.3447 65.8676 40.3447 66.7246Z" />
  <path
    d="M40.3447 69.8274C40.3447 70.6844 41.0395 71.3791 41.8965 71.3791C42.7534 71.3791 43.4482 70.6844 43.4482 69.8274C43.4482 68.9704 42.7534 68.2756 41.8965 68.2756C41.0395 68.2756 40.3447 68.9704 40.3447 69.8274Z" />
  <path
    d="M40.3447 72.9314C40.3447 73.7884 41.0395 74.4831 41.8965 74.4831C42.7534 74.4831 43.4482 73.7884 43.4482 72.9314C43.4482 72.0744 42.7534 71.3796 41.8965 71.3796C41.0395 71.3796 40.3447 72.0744 40.3447 72.9314Z" />
  <path
    d="M40.3447 76.0341C40.3447 76.8911 41.0395 77.5859 41.8965 77.5859C42.7534 77.5859 43.4482 76.8911 43.4482 76.0341C43.4482 75.1772 42.7534 74.4824 41.8965 74.4824C41.0395 74.4824 40.3447 75.1772 40.3447 76.0341Z" />
  <path
    d="M40.3447 85.3445C40.3447 86.2014 41.0395 86.8962 41.8965 86.8962C42.7534 86.8962 43.4482 86.2014 43.4482 85.3445C43.4482 84.4875 42.7534 83.7927 41.8965 83.7927C41.0395 83.7927 40.3447 84.4875 40.3447 85.3445Z" />
  <path
    d="M40.3447 88.4482C40.3447 89.3052 41.0395 89.9999 41.8965 89.9999C42.7534 89.9999 43.4482 89.3052 43.4482 88.4482C43.4482 87.5912 42.7534 86.8965 41.8965 86.8965C41.0395 86.8965 40.3447 87.5912 40.3447 88.4482Z" />
  <path
    d="M37.2412 1.55173C37.2412 2.40872 37.9359 3.10346 38.7929 3.10346C39.6499 3.10346 40.3447 2.40872 40.3447 1.55173C40.3447 0.694732 39.6499 0 38.7929 0C37.9359 0 37.2412 0.694732 37.2412 1.55173Z" />
  <path
    d="M37.2412 4.65524C37.2412 5.51224 37.9359 6.20697 38.7929 6.20697C39.6499 6.20697 40.3447 5.51224 40.3447 4.65524C40.3447 3.79825 39.6499 3.10352 38.7929 3.10352C37.9359 3.10352 37.2412 3.79825 37.2412 4.65524Z" />
  <path
    d="M37.2412 7.75778C37.2412 8.61478 37.9359 9.30951 38.7929 9.30951C39.6499 9.30951 40.3447 8.61478 40.3447 7.75778C40.3447 6.90079 39.6499 6.20605 38.7929 6.20605C37.9359 6.20605 37.2412 6.90079 37.2412 7.75778Z" />
  <path
    d="M37.2412 13.9648C37.2412 14.8218 37.9359 15.5165 38.7929 15.5165C39.6499 15.5165 40.3447 14.8218 40.3447 13.9648C40.3447 13.1078 39.6499 12.4131 38.7929 12.4131C37.9359 12.4131 37.2412 13.1078 37.2412 13.9648Z" />
  <path
    d="M37.2412 20.1728C37.2412 21.0298 37.9359 21.7245 38.7929 21.7245C39.6499 21.7245 40.3447 21.0298 40.3447 20.1728C40.3447 19.3158 39.6499 18.6211 38.7929 18.6211C37.9359 18.6211 37.2412 19.3158 37.2412 20.1728Z" />
  <path
    d="M37.2412 23.2754C37.2412 24.1324 37.9359 24.8271 38.7929 24.8271C39.6499 24.8271 40.3447 24.1324 40.3447 23.2754C40.3447 22.4184 39.6499 21.7236 38.7929 21.7236C37.9359 21.7236 37.2412 22.4184 37.2412 23.2754Z" />
  <path
    d="M37.2412 32.5866C37.2412 33.4436 37.9359 34.1384 38.7929 34.1384C39.6499 34.1384 40.3447 33.4436 40.3447 32.5866C40.3447 31.7296 39.6499 31.0349 38.7929 31.0349C37.9359 31.0349 37.2412 31.7296 37.2412 32.5866Z" />
  <path
    d="M37.2412 38.7927C37.2412 39.6497 37.9359 40.3444 38.7929 40.3444C39.6499 40.3444 40.3447 39.6497 40.3447 38.7927C40.3447 37.9357 39.6499 37.241 38.7929 37.241C37.9359 37.241 37.2412 37.9357 37.2412 38.7927Z" />
  <path
    d="M37.2412 45C37.2412 45.857 37.9359 46.5517 38.7929 46.5517C39.6499 46.5517 40.3447 45.857 40.3447 45C40.3447 44.143 39.6499 43.4482 38.7929 43.4482C37.9359 43.4482 37.2412 44.143 37.2412 45Z" />
  <path
    d="M37.2412 51.207C37.2412 52.064 37.9359 52.7587 38.7929 52.7587C39.6499 52.7587 40.3447 52.064 40.3447 51.207C40.3447 50.35 39.6499 49.6553 38.7929 49.6553C37.9359 49.6553 37.2412 50.35 37.2412 51.207Z" />
  <path
    d="M37.2412 57.414C37.2412 58.271 37.9359 58.9658 38.7929 58.9658C39.6499 58.9658 40.3447 58.271 40.3447 57.414C40.3447 56.557 39.6499 55.8623 38.7929 55.8623C37.9359 55.8623 37.2412 56.557 37.2412 57.414Z" />
  <path
    d="M37.2412 69.8274C37.2412 70.6844 37.9359 71.3791 38.7929 71.3791C39.6499 71.3791 40.3447 70.6844 40.3447 69.8274C40.3447 68.9704 39.6499 68.2756 38.7929 68.2756C37.9359 68.2756 37.2412 68.9704 37.2412 69.8274Z" />
  <path
    d="M37.2412 72.9314C37.2412 73.7884 37.9359 74.4831 38.7929 74.4831C39.6499 74.4831 40.3447 73.7884 40.3447 72.9314C40.3447 72.0744 39.6499 71.3796 38.7929 71.3796C37.9359 71.3796 37.2412 72.0744 37.2412 72.9314Z" />
  <path
    d="M37.2412 82.2412C37.2412 83.0982 37.9359 83.7929 38.7929 83.7929C39.6499 83.7929 40.3447 83.0982 40.3447 82.2412C40.3447 81.3842 39.6499 80.6895 38.7929 80.6895C37.9359 80.6895 37.2412 81.3842 37.2412 82.2412Z" />
  <path
    d="M37.2412 85.3445C37.2412 86.2014 37.9359 86.8962 38.7929 86.8962C39.6499 86.8962 40.3447 86.2014 40.3447 85.3445C40.3447 84.4875 39.6499 83.7927 38.7929 83.7927C37.9359 83.7927 37.2412 84.4875 37.2412 85.3445Z" />
  <path
    d="M34.1372 4.65524C34.1372 5.51224 34.8319 6.20697 35.6889 6.20697C36.5459 6.20697 37.2407 5.51224 37.2407 4.65524C37.2407 3.79825 36.5459 3.10352 35.6889 3.10352C34.8319 3.10352 34.1372 3.79825 34.1372 4.65524Z" />
  <path
    d="M34.1372 7.75778C34.1372 8.61478 34.8319 9.30951 35.6889 9.30951C36.5459 9.30951 37.2407 8.61478 37.2407 7.75778C37.2407 6.90079 36.5459 6.20605 35.6889 6.20605C34.8319 6.20605 34.1372 6.90079 34.1372 7.75778Z" />
  <path
    d="M34.1372 13.9648C34.1372 14.8218 34.8319 15.5165 35.6889 15.5165C36.5459 15.5165 37.2407 14.8218 37.2407 13.9648C37.2407 13.1078 36.5459 12.4131 35.6889 12.4131C34.8319 12.4131 34.1372 13.1078 34.1372 13.9648Z" />
  <path
    d="M34.1372 23.2754C34.1372 24.1324 34.8319 24.8271 35.6889 24.8271C36.5459 24.8271 37.2407 24.1324 37.2407 23.2754C37.2407 22.4184 36.5459 21.7236 35.6889 21.7236C34.8319 21.7236 34.1372 22.4184 34.1372 23.2754Z" />
  <path
    d="M34.1372 26.3799C34.1372 27.2368 34.8319 27.9316 35.6889 27.9316C36.5459 27.9316 37.2407 27.2368 37.2407 26.3799C37.2407 25.5229 36.5459 24.8281 35.6889 24.8281C34.8319 24.8281 34.1372 25.5229 34.1372 26.3799Z" />
  <path
    d="M34.1372 48.1035C34.1372 48.9605 34.8319 49.6552 35.6889 49.6552C36.5459 49.6552 37.2407 48.9605 37.2407 48.1035C37.2407 47.2465 36.5459 46.5518 35.6889 46.5518C34.8319 46.5518 34.1372 47.2465 34.1372 48.1035Z" />
  <path
    d="M34.1372 57.414C34.1372 58.271 34.8319 58.9658 35.6889 58.9658C36.5459 58.9658 37.2407 58.271 37.2407 57.414C37.2407 56.557 36.5459 55.8623 35.6889 55.8623C34.8319 55.8623 34.1372 56.557 34.1372 57.414Z" />
  <path
    d="M34.1372 60.5175C34.1372 61.3745 34.8319 62.0693 35.6889 62.0693C36.5459 62.0693 37.2407 61.3745 37.2407 60.5175C37.2407 59.6606 36.5459 58.9658 35.6889 58.9658C34.8319 58.9658 34.1372 59.6606 34.1372 60.5175Z" />
  <path
    d="M34.1372 66.7246C34.1372 67.5816 34.8319 68.2763 35.6889 68.2763C36.5459 68.2763 37.2407 67.5816 37.2407 66.7246C37.2407 65.8676 36.5459 65.1729 35.6889 65.1729C34.8319 65.1729 34.1372 65.8676 34.1372 66.7246Z" />
  <path
    d="M34.1372 69.8274C34.1372 70.6844 34.8319 71.3791 35.6889 71.3791C36.5459 71.3791 37.2407 70.6844 37.2407 69.8274C37.2407 68.9704 36.5459 68.2756 35.6889 68.2756C34.8319 68.2756 34.1372 68.9704 34.1372 69.8274Z" />
  <path
    d="M34.1372 72.9314C34.1372 73.7884 34.8319 74.4831 35.6889 74.4831C36.5459 74.4831 37.2407 73.7884 37.2407 72.9314C37.2407 72.0744 36.5459 71.3796 35.6889 71.3796C34.8319 71.3796 34.1372 72.0744 34.1372 72.9314Z" />
  <path
    d="M34.1372 76.0341C34.1372 76.8911 34.8319 77.5859 35.6889 77.5859C36.5459 77.5859 37.2407 76.8911 37.2407 76.0341C37.2407 75.1772 36.5459 74.4824 35.6889 74.4824C34.8319 74.4824 34.1372 75.1772 34.1372 76.0341Z" />
  <path
    d="M31.0337 1.55173C31.0337 2.40872 31.7284 3.10346 32.5854 3.10346C33.4424 3.10346 34.1371 2.40872 34.1371 1.55173C34.1371 0.694732 33.4424 0 32.5854 0C31.7284 0 31.0337 0.694732 31.0337 1.55173Z" />
  <path
    d="M31.0342 10.8623C31.0342 11.7193 31.7289 12.414 32.5859 12.414C33.4429 12.414 34.1376 11.7193 34.1376 10.8623C34.1376 10.0053 33.4429 9.31055 32.5859 9.31055C31.7289 9.31055 31.0342 10.0053 31.0342 10.8623Z" />
  <path
    d="M31.0342 13.9648C31.0342 14.8218 31.7289 15.5165 32.5859 15.5165C33.4429 15.5165 34.1376 14.8218 34.1376 13.9648C34.1376 13.1078 33.4429 12.4131 32.5859 12.4131C31.7289 12.4131 31.0342 13.1078 31.0342 13.9648Z" />
  <path
    d="M31.0342 20.1728C31.0342 21.0298 31.7289 21.7245 32.5859 21.7245C33.4429 21.7245 34.1376 21.0298 34.1376 20.1728C34.1376 19.3158 33.4429 18.6211 32.5859 18.6211C31.7289 18.6211 31.0342 19.3158 31.0342 20.1728Z" />
  <path
    d="M31.0337 32.5866C31.0337 33.4436 31.7284 34.1384 32.5854 34.1384C33.4424 34.1384 34.1371 33.4436 34.1371 32.5866C34.1371 31.7296 33.4424 31.0349 32.5854 31.0349C31.7284 31.0349 31.0337 31.7296 31.0337 32.5866Z" />
  <path
    d="M31.0342 41.8965C31.0342 42.7534 31.7289 43.4482 32.5859 43.4482C33.4429 43.4482 34.1376 42.7534 34.1376 41.8965C34.1376 41.0395 33.4429 40.3447 32.5859 40.3447C31.7289 40.3447 31.0342 41.0395 31.0342 41.8965Z" />
  <path
    d="M31.0342 45C31.0342 45.857 31.7289 46.5517 32.5859 46.5517C33.4429 46.5517 34.1376 45.857 34.1376 45C34.1376 44.143 33.4429 43.4482 32.5859 43.4482C31.7289 43.4482 31.0342 44.143 31.0342 45Z" />
  <path
    d="M31.0337 54.3095C31.0337 55.1665 31.7284 55.8613 32.5854 55.8613C33.4424 55.8613 34.1371 55.1665 34.1371 54.3095C34.1371 53.4525 33.4424 52.7578 32.5854 52.7578C31.7284 52.7578 31.0337 53.4525 31.0337 54.3095Z" />
  <path
    d="M31.0342 60.5175C31.0342 61.3745 31.7289 62.0693 32.5859 62.0693C33.4429 62.0693 34.1376 61.3745 34.1376 60.5175C34.1376 59.6606 33.4429 58.9658 32.5859 58.9658C31.7289 58.9658 31.0342 59.6606 31.0342 60.5175Z" />
  <path
    d="M31.0337 79.1384C31.0337 79.9954 31.7284 80.6901 32.5854 80.6901C33.4424 80.6901 34.1371 79.9954 34.1371 79.1384C34.1371 78.2814 33.4424 77.5867 32.5854 77.5867C31.7284 77.5867 31.0337 78.2814 31.0337 79.1384Z" />
  <path
    d="M31.0342 82.2412C31.0342 83.0982 31.7289 83.7929 32.5859 83.7929C33.4429 83.7929 34.1376 83.0982 34.1376 82.2412C34.1376 81.3842 33.4429 80.6895 32.5859 80.6895C31.7289 80.6895 31.0342 81.3842 31.0342 82.2412Z" />
  <path
    d="M27.9307 7.75778C27.9307 8.61478 28.6254 9.30951 29.4824 9.30951C30.3394 9.30951 31.0341 8.61478 31.0341 7.75778C31.0341 6.90079 30.3394 6.20605 29.4824 6.20605C28.6254 6.20605 27.9307 6.90079 27.9307 7.75778Z" />
  <path
    d="M27.9307 10.8623C27.9307 11.7193 28.6254 12.414 29.4824 12.414C30.3394 12.414 31.0341 11.7193 31.0341 10.8623C31.0341 10.0053 30.3394 9.31055 29.4824 9.31055C28.6254 9.31055 27.9307 10.0053 27.9307 10.8623Z" />
  <path
    d="M27.9307 13.9648C27.9307 14.8218 28.6254 15.5165 29.4824 15.5165C30.3394 15.5165 31.0341 14.8218 31.0341 13.9648C31.0341 13.1078 30.3394 12.4131 29.4824 12.4131C28.6254 12.4131 27.9307 13.1078 27.9307 13.9648Z" />
  <path
    d="M27.9307 17.0693C27.9307 17.9263 28.6254 18.621 29.4824 18.621C30.3394 18.621 31.0341 17.9263 31.0341 17.0693C31.0341 16.2123 30.3394 15.5176 29.4824 15.5176C28.6254 15.5176 27.9307 16.2123 27.9307 17.0693Z" />
  <path
    d="M27.9307 26.3799C27.9307 27.2368 28.6254 27.9316 29.4824 27.9316C30.3394 27.9316 31.0341 27.2368 31.0341 26.3799C31.0341 25.5229 30.3394 24.8281 29.4824 24.8281C28.6254 24.8281 27.9307 25.5229 27.9307 26.3799Z" />
  <path
    d="M27.9307 35.6894C27.9307 36.5464 28.6254 37.2412 29.4824 37.2412C30.3394 37.2412 31.0341 36.5464 31.0341 35.6894C31.0341 34.8324 30.3394 34.1377 29.4824 34.1377C28.6254 34.1377 27.9307 34.8324 27.9307 35.6894Z" />
  <path
    d="M27.9307 41.8965C27.9307 42.7534 28.6254 43.4482 29.4824 43.4482C30.3394 43.4482 31.0341 42.7534 31.0341 41.8965C31.0341 41.0395 30.3394 40.3447 29.4824 40.3447C28.6254 40.3447 27.9307 41.0395 27.9307 41.8965Z" />
  <path
    d="M27.9307 45C27.9307 45.857 28.6254 46.5517 29.4824 46.5517C30.3394 46.5517 31.0341 45.857 31.0341 45C31.0341 44.143 30.3394 43.4482 29.4824 43.4482C28.6254 43.4482 27.9307 44.143 27.9307 45Z" />
  <path
    d="M27.9307 48.1035C27.9307 48.9605 28.6254 49.6552 29.4824 49.6552C30.3394 49.6552 31.0341 48.9605 31.0341 48.1035C31.0341 47.2465 30.3394 46.5518 29.4824 46.5518C28.6254 46.5518 27.9307 47.2465 27.9307 48.1035Z" />
  <path
    d="M27.9307 51.207C27.9307 52.064 28.6254 52.7587 29.4824 52.7587C30.3394 52.7587 31.0341 52.064 31.0341 51.207C31.0341 50.35 30.3394 49.6553 29.4824 49.6553C28.6254 49.6553 27.9307 50.35 27.9307 51.207Z" />
  <path
    d="M27.9307 54.3095C27.9307 55.1665 28.6254 55.8613 29.4824 55.8613C30.3394 55.8613 31.0341 55.1665 31.0341 54.3095C31.0341 53.4525 30.3394 52.7578 29.4824 52.7578C28.6254 52.7578 27.9307 53.4525 27.9307 54.3095Z" />
  <path
    d="M27.9307 57.414C27.9307 58.271 28.6254 58.9658 29.4824 58.9658C30.3394 58.9658 31.0341 58.271 31.0341 57.414C31.0341 56.557 30.3394 55.8623 29.4824 55.8623C28.6254 55.8623 27.9307 56.557 27.9307 57.414Z" />
  <path
    d="M27.9307 60.5175C27.9307 61.3745 28.6254 62.0693 29.4824 62.0693C30.3394 62.0693 31.0341 61.3745 31.0341 60.5175C31.0341 59.6606 30.3394 58.9658 29.4824 58.9658C28.6254 58.9658 27.9307 59.6606 27.9307 60.5175Z" />
  <path
    d="M27.9307 69.8274C27.9307 70.6844 28.6254 71.3791 29.4824 71.3791C30.3394 71.3791 31.0341 70.6844 31.0341 69.8274C31.0341 68.9704 30.3394 68.2756 29.4824 68.2756C28.6254 68.2756 27.9307 68.9704 27.9307 69.8274Z" />
  <path
    d="M27.9307 82.2412C27.9307 83.0982 28.6254 83.7929 29.4824 83.7929C30.3394 83.7929 31.0341 83.0982 31.0341 82.2412C31.0341 81.3842 30.3394 80.6895 29.4824 80.6895C28.6254 80.6895 27.9307 81.3842 27.9307 82.2412Z" />
  <path
    d="M27.9307 88.4482C27.9307 89.3052 28.6254 89.9999 29.4824 89.9999C30.3394 89.9999 31.0341 89.3052 31.0341 88.4482C31.0341 87.5912 30.3394 86.8965 29.4824 86.8965C28.6254 86.8965 27.9307 87.5912 27.9307 88.4482Z" />
  <path
    d="M24.8271 4.65524C24.8271 5.51224 25.5219 6.20697 26.3789 6.20697C27.2359 6.20697 27.9306 5.51224 27.9306 4.65524C27.9306 3.79825 27.2359 3.10352 26.3789 3.10352C25.5219 3.10352 24.8271 3.79825 24.8271 4.65524Z" />
  <path
    d="M24.8271 10.8623C24.8271 11.7193 25.5219 12.414 26.3789 12.414C27.2359 12.414 27.9306 11.7193 27.9306 10.8623C27.9306 10.0053 27.2359 9.31055 26.3789 9.31055C25.5219 9.31055 24.8271 10.0053 24.8271 10.8623Z" />
  <path
    d="M24.8271 13.9648C24.8271 14.8218 25.5219 15.5165 26.3789 15.5165C27.2359 15.5165 27.9306 14.8218 27.9306 13.9648C27.9306 13.1078 27.2359 12.4131 26.3789 12.4131C25.5219 12.4131 24.8271 13.1078 24.8271 13.9648Z" />
  <path
    d="M24.8271 17.0693C24.8271 17.9263 25.5219 18.621 26.3789 18.621C27.2359 18.621 27.9306 17.9263 27.9306 17.0693C27.9306 16.2123 27.2359 15.5176 26.3789 15.5176C25.5219 15.5176 24.8271 16.2123 24.8271 17.0693Z" />
  <path
    d="M24.8271 20.1728C24.8271 21.0298 25.5219 21.7245 26.3789 21.7245C27.2359 21.7245 27.9306 21.0298 27.9306 20.1728C27.9306 19.3158 27.2359 18.6211 26.3789 18.6211C25.5219 18.6211 24.8271 19.3158 24.8271 20.1728Z" />
  <path
    d="M24.8271 26.3799C24.8271 27.2368 25.5219 27.9316 26.3789 27.9316C27.2359 27.9316 27.9306 27.2368 27.9306 26.3799C27.9306 25.5229 27.2359 24.8281 26.3789 24.8281C25.5219 24.8281 24.8271 25.5229 24.8271 26.3799Z" />
  <path
    d="M24.8271 32.5866C24.8271 33.4436 25.5219 34.1384 26.3789 34.1384C27.2359 34.1384 27.9306 33.4436 27.9306 32.5866C27.9306 31.7296 27.2359 31.0349 26.3789 31.0349C25.5219 31.0349 24.8271 31.7296 24.8271 32.5866Z" />
  <path
    d="M24.8271 41.8965C24.8271 42.7534 25.5219 43.4482 26.3789 43.4482C27.2359 43.4482 27.9306 42.7534 27.9306 41.8965C27.9306 41.0395 27.2359 40.3447 26.3789 40.3447C25.5219 40.3447 24.8271 41.0395 24.8271 41.8965Z" />
  <path
    d="M24.8271 45C24.8271 45.857 25.5219 46.5517 26.3789 46.5517C27.2359 46.5517 27.9306 45.857 27.9306 45C27.9306 44.143 27.2359 43.4482 26.3789 43.4482C25.5219 43.4482 24.8271 44.143 24.8271 45Z" />
  <path
    d="M24.8271 57.414C24.8271 58.271 25.5219 58.9658 26.3789 58.9658C27.2359 58.9658 27.9306 58.271 27.9306 57.414C27.9306 56.557 27.2359 55.8623 26.3789 55.8623C25.5219 55.8623 24.8271 56.557 24.8271 57.414Z" />
  <path
    d="M24.8271 60.5175C24.8271 61.3745 25.5219 62.0693 26.3789 62.0693C27.2359 62.0693 27.9306 61.3745 27.9306 60.5175C27.9306 59.6606 27.2359 58.9658 26.3789 58.9658C25.5219 58.9658 24.8271 59.6606 24.8271 60.5175Z" />
  <path
    d="M24.8271 63.6213C24.8271 64.4783 25.5219 65.173 26.3789 65.173C27.2359 65.173 27.9306 64.4783 27.9306 63.6213C27.9306 62.7643 27.2359 62.0696 26.3789 62.0696C25.5219 62.0696 24.8271 62.7643 24.8271 63.6213Z" />
  <path
    d="M24.8271 66.7246C24.8271 67.5816 25.5219 68.2763 26.3789 68.2763C27.2359 68.2763 27.9306 67.5816 27.9306 66.7246C27.9306 65.8676 27.2359 65.1729 26.3789 65.1729C25.5219 65.1729 24.8271 65.8676 24.8271 66.7246Z" />
  <path
    d="M24.8271 69.8274C24.8271 70.6844 25.5219 71.3791 26.3789 71.3791C27.2359 71.3791 27.9306 70.6844 27.9306 69.8274C27.9306 68.9704 27.2359 68.2756 26.3789 68.2756C25.5219 68.2756 24.8271 68.9704 24.8271 69.8274Z" />
  <path
    d="M24.8271 72.9314C24.8271 73.7884 25.5219 74.4831 26.3789 74.4831C27.2359 74.4831 27.9306 73.7884 27.9306 72.9314C27.9306 72.0744 27.2359 71.3796 26.3789 71.3796C25.5219 71.3796 24.8271 72.0744 24.8271 72.9314Z" />
  <path
    d="M24.8271 76.0341C24.8271 76.8911 25.5219 77.5859 26.3789 77.5859C27.2359 77.5859 27.9306 76.8911 27.9306 76.0341C27.9306 75.1772 27.2359 74.4824 26.3789 74.4824C25.5219 74.4824 24.8271 75.1772 24.8271 76.0341Z" />
  <path
    d="M24.8271 82.2412C24.8271 83.0982 25.5219 83.7929 26.3789 83.7929C27.2359 83.7929 27.9306 83.0982 27.9306 82.2412C27.9306 81.3842 27.2359 80.6895 26.3789 80.6895C25.5219 80.6895 24.8271 81.3842 24.8271 82.2412Z" />
  <path
    d="M24.8271 88.4482C24.8271 89.3052 25.5219 89.9999 26.3789 89.9999C27.2359 89.9999 27.9306 89.3052 27.9306 88.4482C27.9306 87.5912 27.2359 86.8965 26.3789 86.8965C25.5219 86.8965 24.8271 87.5912 24.8271 88.4482Z" />
  <path
    d="M21.7236 26.3799C21.7236 27.2368 22.4184 27.9316 23.2754 27.9316C24.1324 27.9316 24.8271 27.2368 24.8271 26.3799C24.8271 25.5229 24.1324 24.8281 23.2754 24.8281C22.4184 24.8281 21.7236 25.5229 21.7236 26.3799Z" />
  <path
    d="M21.7236 29.4826C21.7236 30.3396 22.4184 31.0344 23.2754 31.0344C24.1324 31.0344 24.8271 30.3396 24.8271 29.4826C24.8271 28.6256 24.1324 27.9309 23.2754 27.9309C22.4184 27.9309 21.7236 28.6256 21.7236 29.4826Z" />
  <path
    d="M21.7236 32.5866C21.7236 33.4436 22.4184 34.1384 23.2754 34.1384C24.1324 34.1384 24.8271 33.4436 24.8271 32.5866C24.8271 31.7296 24.1324 31.0349 23.2754 31.0349C22.4184 31.0349 21.7236 31.7296 21.7236 32.5866Z" />
  <path
    d="M21.7236 63.6213C21.7236 64.4783 22.4184 65.173 23.2754 65.173C24.1324 65.173 24.8271 64.4783 24.8271 63.6213C24.8271 62.7643 24.1324 62.0696 23.2754 62.0696C22.4184 62.0696 21.7236 62.7643 21.7236 63.6213Z" />
  <path
    d="M21.7236 76.0341C21.7236 76.8911 22.4184 77.5859 23.2754 77.5859C24.1324 77.5859 24.8271 76.8911 24.8271 76.0341C24.8271 75.1772 24.1324 74.4824 23.2754 74.4824C22.4184 74.4824 21.7236 75.1772 21.7236 76.0341Z" />
  <path
    d="M21.7236 85.3445C21.7236 86.2014 22.4184 86.8962 23.2754 86.8962C24.1324 86.8962 24.8271 86.2014 24.8271 85.3445C24.8271 84.4875 24.1324 83.7927 23.2754 83.7927C22.4184 83.7927 21.7236 84.4875 21.7236 85.3445Z" />
  <path
    d="M18.6201 45C18.6201 45.857 19.3148 46.5517 20.1718 46.5517C21.0288 46.5517 21.7236 45.857 21.7236 45C21.7236 44.143 21.0288 43.4482 20.1718 43.4482C19.3148 43.4482 18.6201 44.143 18.6201 45Z" />
  <path
    d="M18.6201 51.207C18.6201 52.064 19.3148 52.7587 20.1718 52.7587C21.0288 52.7587 21.7236 52.064 21.7236 51.207C21.7236 50.35 21.0288 49.6553 20.1718 49.6553C19.3148 49.6553 18.6201 50.35 18.6201 51.207Z" />
  <path
    d="M18.6201 57.414C18.6201 58.271 19.3148 58.9658 20.1718 58.9658C21.0288 58.9658 21.7236 58.271 21.7236 57.414C21.7236 56.557 21.0288 55.8623 20.1718 55.8623C19.3148 55.8623 18.6201 56.557 18.6201 57.414Z" />
  <path
    d="M18.6201 60.5175C18.6201 61.3745 19.3148 62.0693 20.1718 62.0693C21.0288 62.0693 21.7236 61.3745 21.7236 60.5175C21.7236 59.6606 21.0288 58.9658 20.1718 58.9658C19.3148 58.9658 18.6201 59.6606 18.6201 60.5175Z" />
  <path
    d="M18.6201 63.6213C18.6201 64.4783 19.3148 65.173 20.1718 65.173C21.0288 65.173 21.7236 64.4783 21.7236 63.6213C21.7236 62.7643 21.0288 62.0696 20.1718 62.0696C19.3148 62.0696 18.6201 62.7643 18.6201 63.6213Z" />
  <path
    d="M18.6201 69.8274C18.6201 70.6844 19.3148 71.3791 20.1718 71.3791C21.0288 71.3791 21.7236 70.6844 21.7236 69.8274C21.7236 68.9704 21.0288 68.2756 20.1718 68.2756C19.3148 68.2756 18.6201 68.9704 18.6201 69.8274Z" />
  <path
    d="M18.6201 76.0341C18.6201 76.8911 19.3148 77.5859 20.1718 77.5859C21.0288 77.5859 21.7236 76.8911 21.7236 76.0341C21.7236 75.1772 21.0288 74.4824 20.1718 74.4824C19.3148 74.4824 18.6201 75.1772 18.6201 76.0341Z" />
  <path
    d="M18.6201 79.1384C18.6201 79.9954 19.3148 80.6901 20.1718 80.6901C21.0288 80.6901 21.7236 79.9954 21.7236 79.1384C21.7236 78.2814 21.0288 77.5867 20.1718 77.5867C19.3148 77.5867 18.6201 78.2814 18.6201 79.1384Z" />
  <path
    d="M18.6201 85.3445C18.6201 86.2014 19.3148 86.8962 20.1718 86.8962C21.0288 86.8962 21.7236 86.2014 21.7236 85.3445C21.7236 84.4875 21.0288 83.7927 20.1718 83.7927C19.3148 83.7927 18.6201 84.4875 18.6201 85.3445Z" />
  <path
    d="M15.5171 29.4826C15.5171 30.3396 16.2118 31.0344 17.0688 31.0344C17.9258 31.0344 18.6205 30.3396 18.6205 29.4826C18.6205 28.6256 17.9258 27.9309 17.0688 27.9309C16.2118 27.9309 15.5171 28.6256 15.5171 29.4826Z" />
  <path
    d="M15.5166 32.5866C15.5166 33.4436 16.2113 34.1384 17.0683 34.1384C17.9253 34.1384 18.6201 33.4436 18.6201 32.5866C18.6201 31.7296 17.9253 31.0349 17.0683 31.0349C16.2113 31.0349 15.5166 31.7296 15.5166 32.5866Z" />
  <path
    d="M15.5171 35.6894C15.5171 36.5464 16.2118 37.2412 17.0688 37.2412C17.9258 37.2412 18.6205 36.5464 18.6205 35.6894C18.6205 34.8324 17.9258 34.1377 17.0688 34.1377C16.2118 34.1377 15.5171 34.8324 15.5171 35.6894Z" />
  <path
    d="M15.5166 38.7927C15.5166 39.6497 16.2113 40.3444 17.0683 40.3444C17.9253 40.3444 18.6201 39.6497 18.6201 38.7927C18.6201 37.9357 17.9253 37.241 17.0683 37.241C16.2113 37.241 15.5166 37.9357 15.5166 38.7927Z" />
  <path
    d="M15.5171 41.8965C15.5171 42.7534 16.2118 43.4482 17.0688 43.4482C17.9258 43.4482 18.6205 42.7534 18.6205 41.8965C18.6205 41.0395 17.9258 40.3447 17.0688 40.3447C16.2118 40.3447 15.5171 41.0395 15.5171 41.8965Z" />
  <path
    d="M15.5171 45C15.5171 45.857 16.2118 46.5517 17.0688 46.5517C17.9258 46.5517 18.6205 45.857 18.6205 45C18.6205 44.143 17.9258 43.4482 17.0688 43.4482C16.2118 43.4482 15.5171 44.143 15.5171 45Z" />
  <path
    d="M15.5166 48.1035C15.5166 48.9605 16.2113 49.6552 17.0683 49.6552C17.9253 49.6552 18.6201 48.9605 18.6201 48.1035C18.6201 47.2465 17.9253 46.5518 17.0683 46.5518C16.2113 46.5518 15.5166 47.2465 15.5166 48.1035Z" />
  <path
    d="M15.5171 57.414C15.5171 58.271 16.2118 58.9658 17.0688 58.9658C17.9258 58.9658 18.6205 58.271 18.6205 57.414C18.6205 56.557 17.9258 55.8623 17.0688 55.8623C16.2118 55.8623 15.5171 56.557 15.5171 57.414Z" />
  <path
    d="M15.5166 63.6213C15.5166 64.4783 16.2113 65.173 17.0683 65.173C17.9253 65.173 18.6201 64.4783 18.6201 63.6213C18.6201 62.7643 17.9253 62.0696 17.0683 62.0696C16.2113 62.0696 15.5166 62.7643 15.5166 63.6213Z" />
  <path
    d="M15.5171 76.0341C15.5171 76.8911 16.2118 77.5859 17.0688 77.5859C17.9258 77.5859 18.6205 76.8911 18.6205 76.0341C18.6205 75.1772 17.9258 74.4824 17.0688 74.4824C16.2118 74.4824 15.5171 75.1772 15.5171 76.0341Z" />
  <path
    d="M15.5166 79.1384C15.5166 79.9954 16.2113 80.6901 17.0683 80.6901C17.9253 80.6901 18.6201 79.9954 18.6201 79.1384C18.6201 78.2814 17.9253 77.5867 17.0683 77.5867C16.2113 77.5867 15.5166 78.2814 15.5166 79.1384Z" />
  <path
    d="M15.5171 82.2412C15.5171 83.0982 16.2118 83.7929 17.0688 83.7929C17.9258 83.7929 18.6205 83.0982 18.6205 82.2412C18.6205 81.3842 17.9258 80.6895 17.0688 80.6895C16.2118 80.6895 15.5171 81.3842 15.5171 82.2412Z" />
  <path
    d="M12.4136 32.5866C12.4136 33.4436 13.1083 34.1384 13.9653 34.1384C14.8223 34.1384 15.517 33.4436 15.517 32.5866C15.517 31.7296 14.8223 31.0349 13.9653 31.0349C13.1083 31.0349 12.4136 31.7296 12.4136 32.5866Z" />
  <path
    d="M12.4131 35.6894C12.4131 36.5464 13.1078 37.2412 13.9648 37.2412C14.8218 37.2412 15.5165 36.5464 15.5165 35.6894C15.5165 34.8324 14.8218 34.1377 13.9648 34.1377C13.1078 34.1377 12.4131 34.8324 12.4131 35.6894Z" />
  <path
    d="M12.4136 48.1035C12.4136 48.9605 13.1083 49.6552 13.9653 49.6552C14.8223 49.6552 15.517 48.9605 15.517 48.1035C15.517 47.2465 14.8223 46.5518 13.9653 46.5518C13.1083 46.5518 12.4136 47.2465 12.4136 48.1035Z" />
  <path
    d="M12.4131 51.207C12.4131 52.064 13.1078 52.7587 13.9648 52.7587C14.8218 52.7587 15.5165 52.064 15.5165 51.207C15.5165 50.35 14.8218 49.6553 13.9648 49.6553C13.1078 49.6553 12.4131 50.35 12.4131 51.207Z" />
  <path
    d="M12.4136 63.6213C12.4136 64.4783 13.1083 65.173 13.9653 65.173C14.8223 65.173 15.517 64.4783 15.517 63.6213C15.517 62.7643 14.8223 62.0696 13.9653 62.0696C13.1083 62.0696 12.4136 62.7643 12.4136 63.6213Z" />
  <path
    d="M12.4131 66.7246C12.4131 67.5816 13.1078 68.2763 13.9648 68.2763C14.8218 68.2763 15.5165 67.5816 15.5165 66.7246C15.5165 65.8676 14.8218 65.1729 13.9648 65.1729C13.1078 65.1729 12.4131 65.8676 12.4131 66.7246Z" />
  <path
    d="M12.4136 69.8274C12.4136 70.6844 13.1083 71.3791 13.9653 71.3791C14.8223 71.3791 15.517 70.6844 15.517 69.8274C15.517 68.9704 14.8223 68.2756 13.9653 68.2756C13.1083 68.2756 12.4136 68.9704 12.4136 69.8274Z" />
  <path
    d="M12.4131 72.9314C12.4131 73.7884 13.1078 74.4831 13.9648 74.4831C14.8218 74.4831 15.5165 73.7884 15.5165 72.9314C15.5165 72.0744 14.8218 71.3796 13.9648 71.3796C13.1078 71.3796 12.4131 72.0744 12.4131 72.9314Z" />
  <path
    d="M12.4131 76.0341C12.4131 76.8911 13.1078 77.5859 13.9648 77.5859C14.8218 77.5859 15.5165 76.8911 15.5165 76.0341C15.5165 75.1772 14.8218 74.4824 13.9648 74.4824C13.1078 74.4824 12.4131 75.1772 12.4131 76.0341Z" />
  <path
    d="M12.4131 82.2412C12.4131 83.0982 13.1078 83.7929 13.9648 83.7929C14.8218 83.7929 15.5165 83.0982 15.5165 82.2412C15.5165 81.3842 14.8218 80.6895 13.9648 80.6895C13.1078 80.6895 12.4131 81.3842 12.4131 82.2412Z" />
  <path
    d="M12.4136 85.3445C12.4136 86.2014 13.1083 86.8962 13.9653 86.8962C14.8223 86.8962 15.517 86.2014 15.517 85.3445C15.517 84.4875 14.8223 83.7927 13.9653 83.7927C13.1083 83.7927 12.4136 84.4875 12.4136 85.3445Z" />
  <path
    d="M12.4131 88.4482C12.4131 89.3052 13.1078 89.9999 13.9648 89.9999C14.8218 89.9999 15.5165 89.3052 15.5165 88.4482C15.5165 87.5912 14.8218 86.8965 13.9648 86.8965C13.1078 86.8965 12.4131 87.5912 12.4131 88.4482Z" />
  <path
    d="M9.31006 26.3799C9.31006 27.2368 10.0048 27.9316 10.8618 27.9316C11.7188 27.9316 12.4135 27.2368 12.4135 26.3799C12.4135 25.5229 11.7188 24.8281 10.8618 24.8281C10.0048 24.8281 9.31006 25.5229 9.31006 26.3799Z" />
  <path
    d="M9.31006 29.4826C9.31006 30.3396 10.0048 31.0344 10.8618 31.0344C11.7188 31.0344 12.4135 30.3396 12.4135 29.4826C12.4135 28.6256 11.7188 27.9309 10.8618 27.9309C10.0048 27.9309 9.31006 28.6256 9.31006 29.4826Z" />
  <path
    d="M9.31006 32.5866C9.31006 33.4436 10.0048 34.1384 10.8618 34.1384C11.7188 34.1384 12.4135 33.4436 12.4135 32.5866C12.4135 31.7296 11.7188 31.0349 10.8618 31.0349C10.0048 31.0349 9.31006 31.7296 9.31006 32.5866Z" />
  <path
    d="M9.31006 35.6894C9.31006 36.5464 10.0048 37.2412 10.8618 37.2412C11.7188 37.2412 12.4135 36.5464 12.4135 35.6894C12.4135 34.8324 11.7188 34.1377 10.8618 34.1377C10.0048 34.1377 9.31006 34.8324 9.31006 35.6894Z" />
  <path
    d="M9.31006 41.8965C9.31006 42.7534 10.0048 43.4482 10.8618 43.4482C11.7188 43.4482 12.4135 42.7534 12.4135 41.8965C12.4135 41.0395 11.7188 40.3447 10.8618 40.3447C10.0048 40.3447 9.31006 41.0395 9.31006 41.8965Z" />
  <path
    d="M9.31006 48.1035C9.31006 48.9605 10.0048 49.6552 10.8618 49.6552C11.7188 49.6552 12.4135 48.9605 12.4135 48.1035C12.4135 47.2465 11.7188 46.5518 10.8618 46.5518C10.0048 46.5518 9.31006 47.2465 9.31006 48.1035Z" />
  <path
    d="M9.31006 51.207C9.31006 52.064 10.0048 52.7587 10.8618 52.7587C11.7188 52.7587 12.4135 52.064 12.4135 51.207C12.4135 50.35 11.7188 49.6553 10.8618 49.6553C10.0048 49.6553 9.31006 50.35 9.31006 51.207Z" />
  <path
    d="M9.31006 54.3095C9.31006 55.1665 10.0048 55.8613 10.8618 55.8613C11.7188 55.8613 12.4135 55.1665 12.4135 54.3095C12.4135 53.4525 11.7188 52.7578 10.8618 52.7578C10.0048 52.7578 9.31006 53.4525 9.31006 54.3095Z" />
  <path
    d="M9.31006 60.5175C9.31006 61.3745 10.0048 62.0693 10.8618 62.0693C11.7188 62.0693 12.4135 61.3745 12.4135 60.5175C12.4135 59.6606 11.7188 58.9658 10.8618 58.9658C10.0048 58.9658 9.31006 59.6606 9.31006 60.5175Z" />
  <path
    d="M9.31006 66.7246C9.31006 67.5816 10.0048 68.2763 10.8618 68.2763C11.7188 68.2763 12.4135 67.5816 12.4135 66.7246C12.4135 65.8676 11.7188 65.1729 10.8618 65.1729C10.0048 65.1729 9.31006 65.8676 9.31006 66.7246Z" />
  <path
    d="M9.31006 69.8274C9.31006 70.6844 10.0048 71.3791 10.8618 71.3791C11.7188 71.3791 12.4135 70.6844 12.4135 69.8274C12.4135 68.9704 11.7188 68.2756 10.8618 68.2756C10.0048 68.2756 9.31006 68.9704 9.31006 69.8274Z" />
  <path
    d="M9.31006 76.0341C9.31006 76.8911 10.0048 77.5859 10.8618 77.5859C11.7188 77.5859 12.4135 76.8911 12.4135 76.0341C12.4135 75.1772 11.7188 74.4824 10.8618 74.4824C10.0048 74.4824 9.31006 75.1772 9.31006 76.0341Z" />
  <path
    d="M9.31006 82.2412C9.31006 83.0982 10.0048 83.7929 10.8618 83.7929C11.7188 83.7929 12.4135 83.0982 12.4135 82.2412C12.4135 81.3842 11.7188 80.6895 10.8618 80.6895C10.0048 80.6895 9.31006 81.3842 9.31006 82.2412Z" />
  <path
    d="M9.31006 85.3445C9.31006 86.2014 10.0048 86.8962 10.8618 86.8962C11.7188 86.8962 12.4135 86.2014 12.4135 85.3445C12.4135 84.4875 11.7188 83.7927 10.8618 83.7927C10.0048 83.7927 9.31006 84.4875 9.31006 85.3445Z" />
  <path
    d="M6.20654 26.3799C6.20654 27.2368 6.90128 27.9316 7.75827 27.9316C8.61527 27.9316 9.31 27.2368 9.31 26.3799C9.31 25.5229 8.61527 24.8281 7.75827 24.8281C6.90128 24.8281 6.20654 25.5229 6.20654 26.3799Z" />
  <path
    d="M6.20654 32.5866C6.20654 33.4436 6.90128 34.1384 7.75827 34.1384C8.61527 34.1384 9.31 33.4436 9.31 32.5866C9.31 31.7296 8.61527 31.0349 7.75827 31.0349C6.90128 31.0349 6.20654 31.7296 6.20654 32.5866Z" />
  <path
    d="M6.20654 38.7927C6.20654 39.6497 6.90128 40.3444 7.75827 40.3444C8.61527 40.3444 9.31 39.6497 9.31 38.7927C9.31 37.9357 8.61527 37.241 7.75827 37.241C6.90128 37.241 6.20654 37.9357 6.20654 38.7927Z" />
  <path
    d="M6.20654 45C6.20654 45.857 6.90128 46.5517 7.75827 46.5517C8.61527 46.5517 9.31 45.857 9.31 45C9.31 44.143 8.61527 43.4482 7.75827 43.4482C6.90128 43.4482 6.20654 44.143 6.20654 45Z" />
  <path
    d="M6.20654 48.1035C6.20654 48.9605 6.90128 49.6552 7.75827 49.6552C8.61527 49.6552 9.31 48.9605 9.31 48.1035C9.31 47.2465 8.61527 46.5518 7.75827 46.5518C6.90128 46.5518 6.20654 47.2465 6.20654 48.1035Z" />
  <path
    d="M6.20654 54.3095C6.20654 55.1665 6.90128 55.8613 7.75827 55.8613C8.61527 55.8613 9.31 55.1665 9.31 54.3095C9.31 53.4525 8.61527 52.7578 7.75827 52.7578C6.90128 52.7578 6.20654 53.4525 6.20654 54.3095Z" />
  <path
    d="M6.20654 57.414C6.20654 58.271 6.90128 58.9658 7.75827 58.9658C8.61527 58.9658 9.31 58.271 9.31 57.414C9.31 56.557 8.61527 55.8623 7.75827 55.8623C6.90128 55.8623 6.20654 56.557 6.20654 57.414Z" />
  <path
    d="M6.20654 72.9314C6.20654 73.7884 6.90128 74.4831 7.75827 74.4831C8.61527 74.4831 9.31 73.7884 9.31 72.9314C9.31 72.0744 8.61527 71.3796 7.75827 71.3796C6.90128 71.3796 6.20654 72.0744 6.20654 72.9314Z" />
  <path
    d="M6.20654 76.0341C6.20654 76.8911 6.90128 77.5859 7.75827 77.5859C8.61527 77.5859 9.31 76.8911 9.31 76.0341C9.31 75.1772 8.61527 74.4824 7.75827 74.4824C6.90128 74.4824 6.20654 75.1772 6.20654 76.0341Z" />
  <path
    d="M6.20654 79.1384C6.20654 79.9954 6.90128 80.6901 7.75827 80.6901C8.61527 80.6901 9.31 79.9954 9.31 79.1384C9.31 78.2814 8.61527 77.5867 7.75827 77.5867C6.90128 77.5867 6.20654 78.2814 6.20654 79.1384Z" />
  <path
    d="M6.20654 82.2412C6.20654 83.0982 6.90128 83.7929 7.75827 83.7929C8.61527 83.7929 9.31 83.0982 9.31 82.2412C9.31 81.3842 8.61527 80.6895 7.75827 80.6895C6.90128 80.6895 6.20654 81.3842 6.20654 82.2412Z" />
  <path
    d="M6.20654 88.4482C6.20654 89.3052 6.90128 89.9999 7.75827 89.9999C8.61527 89.9999 9.31 89.3052 9.31 88.4482C9.31 87.5912 8.61527 86.8965 7.75827 86.8965C6.90128 86.8965 6.20654 87.5912 6.20654 88.4482Z" />
  <path
    d="M3.10303 26.3799C3.10303 27.2368 3.79776 27.9316 4.65476 27.9316C5.51175 27.9316 6.20648 27.2368 6.20648 26.3799C6.20648 25.5229 5.51175 24.8281 4.65476 24.8281C3.79776 24.8281 3.10303 25.5229 3.10303 26.3799Z" />
  <path
    d="M3.10303 38.7927C3.10303 39.6497 3.79776 40.3444 4.65476 40.3444C5.51175 40.3444 6.20648 39.6497 6.20648 38.7927C6.20648 37.9357 5.51175 37.241 4.65476 37.241C3.79776 37.241 3.10303 37.9357 3.10303 38.7927Z" />
  <path
    d="M3.10303 41.8965C3.10303 42.7534 3.79776 43.4482 4.65476 43.4482C5.51175 43.4482 6.20648 42.7534 6.20648 41.8965C6.20648 41.0395 5.51175 40.3447 4.65476 40.3447C3.79776 40.3447 3.10303 41.0395 3.10303 41.8965Z" />
  <path
    d="M3.10303 48.1035C3.10303 48.9605 3.79776 49.6552 4.65476 49.6552C5.51175 49.6552 6.20648 48.9605 6.20648 48.1035C6.20648 47.2465 5.51175 46.5518 4.65476 46.5518C3.79776 46.5518 3.10303 47.2465 3.10303 48.1035Z" />
  <path
    d="M3.10303 51.207C3.10303 52.064 3.79776 52.7587 4.65476 52.7587C5.51175 52.7587 6.20648 52.064 6.20648 51.207C6.20648 50.35 5.51175 49.6553 4.65476 49.6553C3.79776 49.6553 3.10303 50.35 3.10303 51.207Z" />
  <path
    d="M3.10303 54.3095C3.10303 55.1665 3.79776 55.8613 4.65476 55.8613C5.51175 55.8613 6.20648 55.1665 6.20648 54.3095C6.20648 53.4525 5.51175 52.7578 4.65476 52.7578C3.79776 52.7578 3.10303 53.4525 3.10303 54.3095Z" />
  <path
    d="M3.10303 57.414C3.10303 58.271 3.79776 58.9658 4.65476 58.9658C5.51175 58.9658 6.20648 58.271 6.20648 57.414C6.20648 56.557 5.51175 55.8623 4.65476 55.8623C3.79776 55.8623 3.10303 56.557 3.10303 57.414Z" />
  <path
    d="M3.10303 60.5175C3.10303 61.3745 3.79776 62.0693 4.65476 62.0693C5.51175 62.0693 6.20648 61.3745 6.20648 60.5175C6.20648 59.6606 5.51175 58.9658 4.65476 58.9658C3.79776 58.9658 3.10303 59.6606 3.10303 60.5175Z" />
  <path
    d="M3.10303 63.6213C3.10303 64.4783 3.79776 65.173 4.65476 65.173C5.51175 65.173 6.20648 64.4783 6.20648 63.6213C6.20648 62.7643 5.51175 62.0696 4.65476 62.0696C3.79776 62.0696 3.10303 62.7643 3.10303 63.6213Z" />
  <path
    d="M3.10303 79.1384C3.10303 79.9954 3.79776 80.6901 4.65476 80.6901C5.51175 80.6901 6.20648 79.9954 6.20648 79.1384C6.20648 78.2814 5.51175 77.5867 4.65476 77.5867C3.79776 77.5867 3.10303 78.2814 3.10303 79.1384Z" />
  <path
    d="M3.10303 82.2412C3.10303 83.0982 3.79776 83.7929 4.65476 83.7929C5.51175 83.7929 6.20648 83.0982 6.20648 82.2412C6.20648 81.3842 5.51175 80.6895 4.65476 80.6895C3.79776 80.6895 3.10303 81.3842 3.10303 82.2412Z" />
  <path
    d="M3.10303 88.4482C3.10303 89.3052 3.79776 89.9999 4.65476 89.9999C5.51175 89.9999 6.20648 89.3052 6.20648 88.4482C6.20648 87.5912 5.51175 86.8965 4.65476 86.8965C3.79776 86.8965 3.10303 87.5912 3.10303 88.4482Z" />
  <path
    d="M-0.000488281 26.3799C-0.000488281 27.2368 0.694244 27.9316 1.55124 27.9316C2.40824 27.9316 3.10297 27.2368 3.10297 26.3799C3.10297 25.5229 2.40824 24.8281 1.55124 24.8281C0.694244 24.8281 -0.000488281 25.5229 -0.000488281 26.3799Z" />
  <path
    d="M-0.000488281 29.4826C-0.000488281 30.3396 0.694244 31.0344 1.55124 31.0344C2.40824 31.0344 3.10297 30.3396 3.10297 29.4826C3.10297 28.6256 2.40824 27.9309 1.55124 27.9309C0.694244 27.9309 -0.000488281 28.6256 -0.000488281 29.4826Z" />
  <path
    d="M-0.000488281 32.5866C-0.000488281 33.4436 0.694244 34.1384 1.55124 34.1384C2.40824 34.1384 3.10297 33.4436 3.10297 32.5866C3.10297 31.7296 2.40824 31.0349 1.55124 31.0349C0.694244 31.0349 -0.000488281 31.7296 -0.000488281 32.5866Z" />
  <path
    d="M-0.000488281 35.6894C-0.000488281 36.5464 0.694244 37.2412 1.55124 37.2412C2.40824 37.2412 3.10297 36.5464 3.10297 35.6894C3.10297 34.8324 2.40824 34.1377 1.55124 34.1377C0.694244 34.1377 -0.000488281 34.8324 -0.000488281 35.6894Z" />
  <path
    d="M-0.000488281 51.207C-0.000488281 52.064 0.694244 52.7587 1.55124 52.7587C2.40824 52.7587 3.10297 52.064 3.10297 51.207C3.10297 50.35 2.40824 49.6553 1.55124 49.6553C0.694244 49.6553 -0.000488281 50.35 -0.000488281 51.207Z" />
  <path
    d="M-0.000488281 54.3095C-0.000488281 55.1665 0.694244 55.8613 1.55124 55.8613C2.40824 55.8613 3.10297 55.1665 3.10297 54.3095C3.10297 53.4525 2.40824 52.7578 1.55124 52.7578C0.694244 52.7578 -0.000488281 53.4525 -0.000488281 54.3095Z" />
  <path
    d="M-0.000488281 57.414C-0.000488281 58.271 0.694244 58.9658 1.55124 58.9658C2.40824 58.9658 3.10297 58.271 3.10297 57.414C3.10297 56.557 2.40824 55.8623 1.55124 55.8623C0.694244 55.8623 -0.000488281 56.557 -0.000488281 57.414Z" />
  <path
    d="M-0.000488281 60.5175C-0.000488281 61.3745 0.694244 62.0693 1.55124 62.0693C2.40824 62.0693 3.10297 61.3745 3.10297 60.5175C3.10297 59.6606 2.40824 58.9658 1.55124 58.9658C0.694244 58.9658 -0.000488281 59.6606 -0.000488281 60.5175Z" />
  <path
    d="M-0.000488281 69.8274C-0.000488281 70.6844 0.694244 71.3791 1.55124 71.3791C2.40824 71.3791 3.10297 70.6844 3.10297 69.8274C3.10297 68.9704 2.40824 68.2756 1.55124 68.2756C0.694244 68.2756 -0.000488281 68.9704 -0.000488281 69.8274Z" />
  <path
    d="M-0.000488281 72.9314C-0.000488281 73.7884 0.694244 74.4831 1.55124 74.4831C2.40824 74.4831 3.10297 73.7884 3.10297 72.9314C3.10297 72.0744 2.40824 71.3796 1.55124 71.3796C0.694244 71.3796 -0.000488281 72.0744 -0.000488281 72.9314Z" />
  <path
    d="M-0.000488281 79.1384C-0.000488281 79.9954 0.694244 80.6901 1.55124 80.6901C2.40824 80.6901 3.10297 79.9954 3.10297 79.1384C3.10297 78.2814 2.40824 77.5867 1.55124 77.5867C0.694244 77.5867 -0.000488281 78.2814 -0.000488281 79.1384Z" />
  <path
    d="M-0.000488281 85.3445C-0.000488281 86.2014 0.694244 86.8962 1.55124 86.8962C2.40824 86.8962 3.10297 86.2014 3.10297 85.3445C3.10297 84.4875 2.40824 83.7927 1.55124 83.7927C0.694244 83.7927 -0.000488281 84.4875 -0.000488281 85.3445Z" />
  <circle cx="11" cy="11" r="5" />
  <path fill-rule="evenodd" clip-rule="evenodd"
    d="M11 19C15.4183 19 19 15.4183 19 11C19 6.58172 15.4183 3 11 3C6.58172 3 3 6.58172 3 11C3 15.4183 6.58172 19 11 19ZM11 22C17.0751 22 22 17.0751 22 11C22 4.92487 17.0751 0 11 0C4.92487 0 0 4.92487 0 11C0 17.0751 4.92487 22 11 22Z" />
  <circle cx="79" cy="11" r="5" />
  <path fill-rule="evenodd" clip-rule="evenodd"
    d="M79 19C83.4183 19 87 15.4183 87 11C87 6.58172 83.4183 3 79 3C74.5817 3 71 6.58172 71 11C71 15.4183 74.5817 19 79 19ZM79 22C85.0751 22 90 17.0751 90 11C90 4.92487 85.0751 0 79 0C72.9249 0 68 4.92487 68 11C68 17.0751 72.9249 22 79 22Z" />
  <circle cx="79" cy="79" r="5" />
  <path fill-rule="evenodd" clip-rule="evenodd"
    d="M79 87C83.4183 87 87 83.4183 87 79C87 74.5817 83.4183 71 79 71C74.5817 71 71 74.5817 71 79C71 83.4183 74.5817 87 79 87ZM79 90C85.0751 90 90 85.0751 90 79C90 72.9249 85.0751 68 79 68C72.9249 68 68 72.9249 68 79C68 85.0751 72.9249 90 79 90Z" />

</svg>