<svg width="48" height="48" viewBox="0 0 48 48" fill="none" xmlns="http://www.w3.org/2000/svg">
<rect width="48" height="48" fill="#FAD749"/>
<g filter="url(#filter0_di_3171_1676)">
<path fill-rule="evenodd" clip-rule="evenodd" d="M23.7291 10.1326C23.8337 9.95581 24.0953 9.95581 24.1999 10.1326L37.4993 32.6023C37.6039 32.7791 37.4731 33 37.2639 33H10.665C10.4558 33 10.325 32.7791 10.4297 32.6023L23.7291 10.1326ZM28.4415 18.6755C28.4832 18.8162 28.4002 18.9632 28.256 19.0039L28.2426 19.0077C28.0984 19.0485 27.9477 18.9675 27.906 18.8268C27.8642 18.6862 27.9472 18.5391 28.0914 18.4984L28.1048 18.4946C28.249 18.4539 28.3997 18.5349 28.4415 18.6755ZM27.4909 18.944C27.5327 19.0847 27.4497 19.2317 27.3055 19.2725L27.2787 19.28C27.1345 19.3208 26.9838 19.2398 26.942 19.0991C26.9003 18.9585 26.9833 18.8114 27.1275 18.7707L27.1543 18.7631C27.2985 18.7224 27.4492 18.8034 27.4909 18.944ZM26.527 19.2163C26.5688 19.357 26.4857 19.504 26.3415 19.5448L26.3148 19.5523C26.1706 19.5931 26.0198 19.5121 25.9781 19.3714C25.9363 19.2308 26.0194 19.0837 26.1636 19.043L26.1903 19.0354C26.3345 18.9947 26.4853 19.0757 26.527 19.2163ZM25.5631 19.4886C25.6048 19.6293 25.5218 19.7763 25.3776 19.8171L25.3508 19.8246C25.2066 19.8653 25.0559 19.7843 25.0141 19.6437C24.9724 19.5031 25.0554 19.356 25.1996 19.3153L25.2264 19.3077C25.3706 19.267 25.5213 19.348 25.5631 19.4886ZM24.5991 19.7609C24.6409 19.9016 24.5579 20.0486 24.4137 20.0893L24.3869 20.0969C24.2427 20.1376 24.092 20.0566 24.0502 19.916C24.0085 19.7753 24.0915 19.6283 24.2357 19.5876L24.2625 19.58C24.4066 19.5393 24.5574 19.6203 24.5991 19.7609ZM23.6352 20.0332C23.677 20.1739 23.5939 20.3209 23.4497 20.3616L23.423 20.3692C23.2788 20.4099 23.128 20.3289 23.0863 20.1883C23.0445 20.0476 23.1276 19.9006 23.2717 19.8599L23.2985 19.8523C23.4427 19.8116 23.5934 19.8926 23.6352 20.0332ZM22.6713 20.3055C22.713 20.4462 22.63 20.5932 22.4858 20.6339L22.459 20.6415C22.3148 20.6822 22.1641 20.6012 22.1223 20.4606C22.0806 20.3199 22.1636 20.1729 22.3078 20.1322L22.3346 20.1246C22.4788 20.0839 22.6295 20.1649 22.6713 20.3055ZM21.7073 20.5778C21.7491 20.7185 21.666 20.8655 21.5219 20.9062L21.4951 20.9138C21.3509 20.9545 21.2002 20.8735 21.1584 20.7329C21.1166 20.5922 21.1997 20.4452 21.3439 20.4045L21.3706 20.3969C21.5148 20.3562 21.6656 20.4372 21.7073 20.5778ZM20.7434 20.8501C20.7851 20.9908 20.7021 21.1378 20.5579 21.1785L20.5311 21.1861C20.387 21.2268 20.2362 21.1458 20.1945 21.0052C20.1527 20.8645 20.2357 20.7175 20.3799 20.6768L20.4067 20.6692C20.5509 20.6285 20.7016 20.7095 20.7434 20.8501ZM19.7795 21.1224C19.8212 21.2631 19.7382 21.4101 19.594 21.4508L19.5672 21.4584C19.423 21.4991 19.2723 21.4181 19.2305 21.2775C19.1888 21.1368 19.2718 20.9898 19.416 20.9491L19.4428 20.9415C19.587 20.9008 19.7377 20.9818 19.7795 21.1224ZM18.6816 21.7028C18.7932 21.6454 18.852 21.5176 18.8155 21.3947C18.7738 21.2541 18.623 21.1731 18.4788 21.2138L18.4521 21.2214C18.3079 21.2621 18.2248 21.4091 18.2666 21.5498C18.2831 21.6054 18.3167 21.6517 18.3601 21.6848C18.2946 21.7222 18.2454 21.7861 18.2302 21.8646C18.2025 22.0085 18.2995 22.1471 18.447 22.1742L18.4729 22.179C18.6205 22.2061 18.7626 22.1114 18.7904 21.9675C18.8106 21.8629 18.7648 21.7611 18.6816 21.7028ZM17.8614 21.7635C17.8642 21.7319 17.8612 21.6993 17.8516 21.667C17.8098 21.5264 17.6591 21.4454 17.5149 21.4861L17.5015 21.4899C17.3807 21.524 17.2996 21.6346 17.3056 21.7572C17.3116 21.8798 17.4031 21.9824 17.5268 22.0051L17.5398 22.0075C17.6873 22.0346 17.8294 21.9399 17.8572 21.796C17.8593 21.7851 17.8607 21.7743 17.8614 21.7635ZM19.1634 22.0361C19.1912 21.8922 19.3333 21.7975 19.4809 21.8246L19.5068 21.8294C19.6543 21.8565 19.7514 21.9951 19.7236 22.139C19.6958 22.2829 19.5537 22.3776 19.4061 22.3505L19.3802 22.3457C19.2327 22.3186 19.1356 22.18 19.1634 22.0361ZM20.0966 22.2076C20.1244 22.0637 20.2665 21.969 20.4141 21.9961L20.44 22.0009C20.5875 22.028 20.6845 22.1666 20.6568 22.3105C20.629 22.4544 20.4868 22.5491 20.3393 22.522L20.3134 22.5172C20.1659 22.4901 20.0688 22.3515 20.0966 22.2076ZM21.0298 22.3791C21.0576 22.2352 21.1997 22.1405 21.3472 22.1676L21.3732 22.1724C21.5207 22.1995 21.6177 22.3381 21.5899 22.482C21.5622 22.6259 21.42 22.7206 21.2725 22.6935L21.2466 22.6887C21.0991 22.6616 21.002 22.523 21.0298 22.3791ZM21.963 22.5506C21.9908 22.4067 22.1329 22.312 22.2804 22.3391L22.3064 22.3439C22.4539 22.371 22.5509 22.5096 22.5231 22.6535C22.4953 22.7974 22.3532 22.8921 22.2057 22.865L22.1798 22.8602C22.0323 22.8331 21.9352 22.6945 21.963 22.5506ZM22.8962 22.7221C22.924 22.5782 23.0661 22.4835 23.2136 22.5106L23.2395 22.5154C23.3871 22.5425 23.4841 22.6811 23.4563 22.825C23.4285 22.9689 23.2864 23.0636 23.1389 23.0365L23.113 23.0317C22.9655 23.0046 22.8684 22.8659 22.8962 22.7221ZM23.8294 22.8936C23.8572 22.7497 23.9993 22.655 24.1468 22.6821L24.1727 22.6869C24.3202 22.714 24.4173 22.8526 24.3895 22.9965C24.3617 23.1404 24.2196 23.2351 24.0721 23.2079L24.0462 23.2032C23.8986 23.1761 23.8016 23.0374 23.8294 22.8936ZM24.7626 23.065C24.7904 22.9212 24.9325 22.8265 25.08 22.8536L25.1059 22.8584C25.2534 22.8855 25.3505 23.0241 25.3227 23.168C25.2949 23.3119 25.1528 23.4066 25.0053 23.3794L24.9794 23.3747C24.8318 23.3476 24.7348 23.2089 24.7626 23.065ZM25.6958 23.2365C25.7236 23.0927 25.8657 22.998 26.0132 23.0251L26.0391 23.0299C26.1866 23.057 26.2837 23.1956 26.2559 23.3395C26.2281 23.4834 26.086 23.5781 25.9385 23.5509L25.9125 23.5462C25.765 23.5191 25.668 23.3804 25.6958 23.2365ZM26.629 23.408C26.6567 23.2642 26.7989 23.1695 26.9464 23.1966L26.9723 23.2014C27.1198 23.2285 27.2169 23.3671 27.1891 23.511C27.1613 23.6549 27.0192 23.7496 26.8717 23.7224L26.8457 23.7177C26.6982 23.6906 26.6012 23.5519 26.629 23.408ZM27.5621 23.5795C27.5899 23.4356 27.732 23.341 27.8796 23.3681L27.9055 23.3728C28.053 23.4 28.1501 23.5386 28.1223 23.6825C28.0945 23.8264 27.9524 23.9211 27.8048 23.8939L27.7789 23.8892C27.6314 23.8621 27.5343 23.7234 27.5621 23.5795ZM28.4953 23.751C28.5231 23.6071 28.6652 23.5125 28.8128 23.5396L28.8387 23.5443C28.9862 23.5715 29.0833 23.7101 29.0555 23.854C29.0277 23.9979 28.8856 24.0925 28.738 24.0654L28.7121 24.0607C28.5646 24.0336 28.4675 23.8949 28.4953 23.751ZM29.4285 23.9225C29.4563 23.7786 29.5984 23.684 29.7459 23.7111L29.7719 23.7158C29.9194 23.743 30.0164 23.8816 29.9887 24.0255C29.9609 24.1694 29.8187 24.264 29.6712 24.2369L29.6453 24.2322C29.4978 24.2051 29.4007 24.0664 29.4285 23.9225ZM30.3617 24.094C30.3895 23.9501 30.5316 23.8555 30.6791 23.8826L30.7051 23.8873C30.8526 23.9145 30.9496 24.0531 30.9218 24.197C30.894 24.3409 30.7519 24.4355 30.6044 24.4084L30.5785 24.4037C30.431 24.3766 30.3339 24.2379 30.3617 24.094ZM31.2949 24.2655C31.3227 24.1216 31.4648 24.027 31.6123 24.0541L31.6253 24.0565C31.7728 24.0836 31.8699 24.2222 31.8421 24.3661C31.8143 24.51 31.6722 24.6047 31.5246 24.5776L31.5117 24.5752C31.3642 24.5481 31.2671 24.4094 31.2949 24.2655Z" fill="black"/>
<path d="M33.6896 24.3276C33.5455 24.2866 33.3946 24.3673 33.3526 24.5079C33.3105 24.6485 33.3933 24.7957 33.5374 24.8367L33.5496 24.8401C33.6937 24.8811 33.8446 24.8004 33.8866 24.6598C33.9286 24.5193 33.8459 24.3721 33.7018 24.3311L33.6896 24.3276Z" fill="black"/>
<path d="M35.4081 24.8165C35.264 24.7755 35.1131 24.8562 35.071 24.9968C35.029 25.1374 35.1118 25.2846 35.2559 25.3256L35.2802 25.3325C35.4243 25.3735 35.5752 25.2928 35.6173 25.1522C35.6593 25.0117 35.5766 24.8645 35.4324 24.8235L35.4081 24.8165Z" fill="black"/>
<path d="M37.1387 25.3089C36.9946 25.2679 36.8437 25.3486 36.8017 25.4892C36.7597 25.6298 36.8424 25.777 36.9865 25.818L37.0109 25.8249C37.155 25.8659 37.3059 25.7852 37.3479 25.6446C37.39 25.504 37.3072 25.3568 37.1631 25.3158L37.1387 25.3089Z" fill="black"/>
<path d="M38.8694 25.8013C38.7253 25.7603 38.5744 25.841 38.5324 25.9816C38.4903 26.1222 38.5731 26.2693 38.7172 26.3103L38.7416 26.3173C38.8857 26.3583 39.0366 26.2776 39.0786 26.137C39.1206 25.9964 39.0379 25.8492 38.8938 25.8082L38.8694 25.8013Z" fill="black"/>
<path d="M40.6001 26.2937C40.4559 26.2527 40.3051 26.3334 40.263 26.474C40.221 26.6145 40.3037 26.7617 40.4478 26.8027L40.4722 26.8097C40.6163 26.8507 40.7672 26.7699 40.8093 26.6294C40.8513 26.4888 40.7685 26.3416 40.6244 26.3006L40.6001 26.2937Z" fill="black"/>
<path d="M42.3307 26.7861C42.1866 26.7451 42.0357 26.8258 41.9937 26.9664C41.9516 27.1069 42.0344 27.2541 42.1785 27.2951L42.2029 27.302C42.347 27.343 42.4979 27.2623 42.5399 27.1218C42.582 26.9812 42.4992 26.834 42.3551 26.793L42.3307 26.7861Z" fill="black"/>
<path d="M44.0614 27.2784C43.9173 27.2374 43.7664 27.3182 43.7243 27.4587C43.6823 27.5993 43.7651 27.7465 43.9092 27.7875L43.9335 27.7944C44.0777 27.8354 44.2286 27.7547 44.2706 27.6141C44.3126 27.4736 44.2299 27.3264 44.0858 27.2854L44.0614 27.2784Z" fill="black"/>
<path d="M45.792 27.7708C45.6479 27.7298 45.497 27.8105 45.455 27.9511C45.413 28.0917 45.4957 28.2389 45.6398 28.2799L45.652 28.2833C45.7961 28.3243 45.947 28.2436 45.9891 28.1031C46.0311 27.9625 45.9483 27.8153 45.8042 27.7743L45.792 27.7708Z" fill="black"/>
<path d="M29.6256 18.2067C29.6377 18.0608 29.7688 17.952 29.9184 17.9638L29.9321 17.9649C30.0817 17.9767 30.1932 18.1046 30.1811 18.2506C30.169 18.3965 30.0379 18.5053 29.8883 18.4935L29.8746 18.4924C29.725 18.4806 29.6135 18.3527 29.6256 18.2067Z" fill="black"/>
<path d="M31.5545 18.359C31.5666 18.213 31.6977 18.1043 31.8473 18.1161L31.8747 18.1182C32.0243 18.13 32.1358 18.2579 32.1237 18.4039C32.1115 18.5498 31.9804 18.6586 31.8308 18.6468L31.8035 18.6446C31.6538 18.6328 31.5423 18.5049 31.5545 18.359Z" fill="black"/>
<path d="M33.497 18.5123C33.5091 18.3663 33.6402 18.2576 33.7898 18.2694L33.8172 18.2715C33.9668 18.2833 34.0783 18.4112 34.0662 18.5572C34.0541 18.7031 33.923 18.8119 33.7734 18.8001L33.746 18.7979C33.5964 18.7861 33.4849 18.6582 33.497 18.5123Z" fill="black"/>
<path d="M35.4396 18.6656C35.4517 18.5196 35.5828 18.4109 35.7324 18.4227L35.7598 18.4248C35.9094 18.4367 36.0209 18.5645 36.0088 18.7105C35.9966 18.8564 35.8655 18.9652 35.7159 18.9534L35.6886 18.9512C35.5389 18.9394 35.4275 18.8115 35.4396 18.6656Z" fill="black"/>
<path d="M37.3821 18.8189C37.3942 18.6729 37.5253 18.5642 37.6749 18.576L37.7023 18.5782C37.8519 18.59 37.9634 18.7179 37.9513 18.8638C37.9392 19.0098 37.8081 19.1185 37.6585 19.1067L37.6311 19.1045C37.4815 19.0927 37.37 18.9648 37.3821 18.8189Z" fill="black"/>
<path d="M39.3247 18.9722C39.3368 18.8262 39.4679 18.7175 39.6175 18.7293L39.6449 18.7315C39.7945 18.7433 39.906 18.8712 39.8939 19.0171C39.8817 19.1631 39.7506 19.2718 39.601 19.26L39.5737 19.2578C39.424 19.246 39.3126 19.1181 39.3247 18.9722Z" fill="black"/>
<path d="M41.2672 19.1255C41.2793 18.9795 41.4104 18.8708 41.56 18.8826L41.5874 18.8848C41.737 18.8966 41.8485 19.0245 41.8364 19.1704C41.8243 19.3164 41.6932 19.4251 41.5436 19.4133L41.5162 19.4111C41.3666 19.3993 41.2551 19.2714 41.2672 19.1255Z" fill="black"/>
<path d="M43.2098 19.2788C43.2219 19.1329 43.353 19.0241 43.5026 19.0359L43.53 19.0381C43.6796 19.0499 43.7911 19.1778 43.779 19.3237C43.7669 19.4697 43.6357 19.5784 43.4861 19.5666L43.4588 19.5645C43.3091 19.5526 43.1977 19.4248 43.2098 19.2788Z" fill="black"/>
<path d="M45.1523 19.4321C45.1644 19.2862 45.2955 19.1774 45.4451 19.1892L45.4588 19.1903C45.6085 19.2021 45.7199 19.33 45.7078 19.476C45.6957 19.6219 45.5646 19.7306 45.415 19.7188L45.4013 19.7178C45.2517 19.706 45.1402 19.5781 45.1523 19.4321Z" fill="black"/>
<path d="M15.833 22.3086C15.8789 22.448 15.8003 22.5974 15.6573 22.6421L11.1819 24.0443L10.0328 25.2898C9.93235 25.3986 9.76049 25.4074 9.64891 25.3095C9.53733 25.2115 9.52829 25.0439 9.62871 24.935L10.1531 24.3666L3.355 26.4966C3.21207 26.5413 3.059 26.4646 3.01309 26.3252C2.96719 26.1858 3.04584 26.0365 3.18876 25.9917L10.0384 23.8457L9.09428 23.6483C8.9475 23.6176 8.85401 23.4767 8.88546 23.3335C8.91691 23.1903 9.0614 23.0991 9.20818 23.1298L11.0766 23.5204L15.4911 22.1373C15.634 22.0925 15.7871 22.1692 15.833 22.3086Z" fill="black"/>
</g>
<defs>
<filter id="filter0_di_3171_1676" x="1" y="10" width="47" height="27" filterUnits="userSpaceOnUse" color-interpolation-filters="sRGB">
<feFlood flood-opacity="0" result="BackgroundImageFix"/>
<feColorMatrix in="SourceAlpha" type="matrix" values="0 0 0 0 0 0 0 0 0 0 0 0 0 0 0 0 0 0 127 0" result="hardAlpha"/>
<feOffset dy="2"/>
<feGaussianBlur stdDeviation="1"/>
<feComposite in2="hardAlpha" operator="out"/>
<feColorMatrix type="matrix" values="0 0 0 0 1 0 0 0 0 1 0 0 0 0 1 0 0 0 0.1 0"/>
<feBlend mode="normal" in2="BackgroundImageFix" result="effect1_dropShadow_3171_1676"/>
<feBlend mode="normal" in="SourceGraphic" in2="effect1_dropShadow_3171_1676" result="shape"/>
<feColorMatrix in="SourceAlpha" type="matrix" values="0 0 0 0 0 0 0 0 0 0 0 0 0 0 0 0 0 0 127 0" result="hardAlpha"/>
<feOffset dy="4"/>
<feGaussianBlur stdDeviation="2"/>
<feComposite in2="hardAlpha" operator="arithmetic" k2="-1" k3="1"/>
<feColorMatrix type="matrix" values="0 0 0 0 0 0 0 0 0 0 0 0 0 0 0 0 0 0 0.25 0"/>
<feBlend mode="normal" in2="shape" result="effect2_innerShadow_3171_1676"/>
</filter>
</defs>
</svg>
